<svg xmlns="http://www.w3.org/2000/svg" width="28" height="28" viewBox="0 0 28 28">
  <path fill="#212121" d="M15,13.2482517 L23,13.2482517 C23.5522847,13.2482517 24,13.695967 24,14.2482517 C24,14.8005365 23.5522847,15.2482517 23,15.2482517 L15,15.2482517 L15,23 C15,23.5522847 14.5522847,24 14,24 C13.4477153,24 13,23.5522847 13,23 L13,15.2482517 L5,15.2482517 C4.44771525,15.2482517 4,14.8005365 4,14.2482517 C4,13.695967 4.44771525,13.2482517 5,13.2482517 L13,13.2482517 L13,5 C13,4.44771525 13.4477153,4 14,4 C14.5522847,4 15,4.44771525 15,5 L15,13.2482517 Z"/>
</svg>
