<svg xmlns="http://www.w3.org/2000/svg" width="28" height="28" viewBox="0 0 28 28">
  <path fill="#212121" d="M8.41421356,15 L14.7071068,21.2928932 C15.0976311,21.6834175 15.0976311,22.3165825 14.7071068,22.7071068 C14.3165825,23.0976311 13.6834175,23.0976311 13.2928932,22.7071068 L5.29289322,14.7071068 C4.90236893,14.3165825 4.90236893,13.6834175 5.29289322,13.2928932 L13.2928932,5.29289322 C13.6834175,4.90236893 14.3165825,4.90236893 14.7071068,5.29289322 C15.0976311,5.68341751 15.0976311,6.31658249 14.7071068,6.70710678 L8.41421356,13 L22,13 C22.5522847,13 23,13.4477153 23,14 C23,14.5522847 22.5522847,15 22,15 L8.41421356,15 Z" transform="rotate(90 14 14)"/>
</svg>
