<svg xmlns="http://www.w3.org/2000/svg" width="28" height="28" viewBox="0 0 28 28">
  <path fill="#212121" d="M19.5776256,21.0637592 L6.96647808,8.38434315 C5.73582607,9.92370062 5,11.8759196 5,14 C5,18.9705627 9.02943725,23 14,23 C16.1066263,23 18.0442041,22.2762171 19.5776256,21.0637592 Z M20.9998189,19.6575582 C22.2507275,18.1117982 23,16.1434001 23,14 C23,9.02943725 18.9705627,5 14,5 C11.8740562,5 9.92027541,5.73711771 8.38029269,6.96971815 L20.9998189,19.6575582 Z M14,25 C7.92486775,25 3,20.0751322 3,14 C3,7.92486775 7.92486775,3 14,3 C20.0751322,3 25,7.92486775 25,14 C25,20.0751322 20.0751322,25 14,25 Z"/>
</svg>
