<svg xmlns="http://www.w3.org/2000/svg" width="28" height="28" viewBox="0 0 28 28">
  <path fill="#212121" d="M15.4142136,14 L22.7071068,21.2928932 C23.0976311,21.6834175 23.0976311,22.3165825 22.7071068,22.7071068 C22.3165825,23.0976311 21.6834175,23.0976311 21.2928932,22.7071068 L14,15.4142136 L6.70710678,22.7071068 C6.31658249,23.0976311 5.68341751,23.0976311 5.29289322,22.7071068 C4.90236893,22.3165825 4.90236893,21.6834175 5.29289322,21.2928932 L12.5857864,14 L5.29289322,6.70710678 C4.90236893,6.31658249 4.90236893,5.68341751 5.29289322,5.29289322 C5.68341751,4.90236893 6.31658249,4.90236893 6.70710678,5.29289322 L14,12.5857864 L21.2928932,5.29289322 C21.6834175,4.90236893 22.3165825,4.90236893 22.7071068,5.29289322 C23.0976311,5.68341751 23.0976311,6.31658249 22.7071068,6.70710678 L15.4142136,14 Z"/>
</svg>
