<svg xmlns="http://www.w3.org/2000/svg" width="28" height="28" viewBox="0 0 28 28">
  <path fill="#212121" d="M5,7 L23,7 C23.5522847,7 24,7.44771525 24,8 C24,8.55228475 23.5522847,9 23,9 L5,9 C4.44771525,9 4,8.55228475 4,8 C4,7.44771525 4.44771525,7 5,7 Z M5,13 L17,13 C17.5522847,13 18,13.4477153 18,14 C18,14.5522847 17.5522847,15 17,15 L5,15 C4.44771525,15 4,14.5522847 4,14 C4,13.4477153 4.44771525,13 5,13 Z M5,19 L11,19 C11.5522847,19 12,19.4477153 12,20 C12,20.5522847 11.5522847,21 11,21 L5,21 C4.44771525,21 4,20.5522847 4,20 C4,19.4477153 4.44771525,19 5,19 Z"/>
</svg>
