<svg xmlns="http://www.w3.org/2000/svg" width="28" height="28" viewBox="0 0 28 28">
  <path fill="#212121" d="M8,13 C5.23857625,13 3,10.7614237 3,8 C3,5.23857625 5.23857625,3 8,3 C10.7614237,3 13,5.23857625 13,8 C13,10.7614237 10.7614237,13 8,13 Z M8,25 C5.23857625,25 3,22.7614237 3,20 C3,17.2385763 5.23857625,15 8,15 C10.7614237,15 13,17.2385763 13,20 C13,22.7614237 10.7614237,25 8,25 Z M20,13 C17.2385763,13 15,10.7614237 15,8 C15,5.23857625 17.2385763,3 20,3 C22.7614237,3 25,5.23857625 25,8 C25,10.7614237 22.7614237,13 20,13 Z M20,25 C17.2385763,25 15,22.7614237 15,20 C15,17.2385763 17.2385763,15 20,15 C22.7614237,15 25,17.2385763 25,20 C25,22.7614237 22.7614237,25 20,25 Z"/>
</svg>
