<svg xmlns="http://www.w3.org/2000/svg" width="28" height="28" viewBox="0 0 28 28">
  <path fill="#212121" d="M8,11 C9.65685425,11 11,9.65685425 11,8 C11,6.34314575 9.65685425,5 8,5 C6.34314575,5 5,6.34314575 5,8 C5,9.65685425 6.34314575,11 8,11 Z M8,13 C5.23857625,13 3,10.7614237 3,8 C3,5.23857625 5.23857625,3 8,3 C10.7614237,3 13,5.23857625 13,8 C13,10.7614237 10.7614237,13 8,13 Z M8,23 C9.65685425,23 11,21.6568542 11,20 C11,18.3431458 9.65685425,17 8,17 C6.34314575,17 5,18.3431458 5,20 C5,21.6568542 6.34314575,23 8,23 Z M8,25 C5.23857625,25 3,22.7614237 3,20 C3,17.2385763 5.23857625,15 8,15 C10.7614237,15 13,17.2385763 13,20 C13,22.7614237 10.7614237,25 8,25 Z M20,11 C21.6568542,11 23,9.65685425 23,8 C23,6.34314575 21.6568542,5 20,5 C18.3431458,5 17,6.34314575 17,8 C17,9.65685425 18.3431458,11 20,11 Z M20,13 C17.2385763,13 15,10.7614237 15,8 C15,5.23857625 17.2385763,3 20,3 C22.7614237,3 25,5.23857625 25,8 C25,10.7614237 22.7614237,13 20,13 Z M20,23 C21.6568542,23 23,21.6568542 23,20 C23,18.3431458 21.6568542,17 20,17 C18.3431458,17 17,18.3431458 17,20 C17,21.6568542 18.3431458,23 20,23 Z M20,25 C17.2385763,25 15,22.7614237 15,20 C15,17.2385763 17.2385763,15 20,15 C22.7614237,15 25,17.2385763 25,20 C25,22.7614237 22.7614237,25 20,25 Z"/>
</svg>
