<svg xmlns="http://www.w3.org/2000/svg" width="28" height="28" viewBox="0 0 28 28">
  <path fill="#212121" d="M14.5450576,6.52480177 C17.2007825,4.24846612 21.1990076,4.55602189 23.4753433,7.21174683 C25.7516789,9.86747176 25.4441231,13.8656968 22.7883982,16.1420325 L14.0000725,23.6748831 L5.21174683,16.1420325 C2.55602189,13.8656968 2.24846612,9.86747176 4.52480177,7.21174683 C6.80113743,4.55602189 10.7993625,4.24846612 13.4550874,6.52480177 L14.0000725,6.99193184 L14.5450576,6.52480177 Z M21.4868155,14.6235193 C23.3038887,13.0660279 23.5143214,10.3304028 21.9568301,8.51332957 C20.3993387,6.69625633 17.6637136,6.48582363 15.8466403,8.04331498 L14.0000725,9.6260874 L12.1535047,8.04331498 C10.3364314,6.48582363 7.60080633,6.69625633 6.04331498,8.51332957 C4.48582363,10.3304028 4.69625633,13.0660279 6.51332957,14.6235193 L14.0000725,21.0407275 L21.4868155,14.6235193 Z"/>
</svg>
