<svg xmlns="http://www.w3.org/2000/svg" width="28" height="28"><path fill="#212121" d="M14 25a1 1 0 010 2h-1a1 1 0 010-2h1zm2-3a1 1 0 010 2h-5a1 1 0 010-2h5zM13.518 1C18.196 1 22 4.7 22 9.28c0 2.647-.644 4-2.32 5.897l-.245.277c-.475.538-.749.882-1.005 1.285-.37.58-.559 1.555-.517 2.92a1.3 1.3 0 01-1.26 1.34l-.04.001h-6.227a1.3 1.3 0 01-1.3-1.3v-.04c.042-1.366-.145-2.34-.516-2.921-.256-.402-.53-.746-1.003-1.283l-.247-.28C5.644 13.282 5 11.928 5 9.28 5 4.7 8.804 1 13.482 1h.036zm0 2h-.036C9.896 3 7 5.818 7 9.28c0 2.09.438 3.01 1.818 4.572l.249.281c.536.609.865 1.022 1.19 1.53.532.836.8 1.947.832 3.337h4.822c.032-1.39.3-2.502.832-3.337.325-.509.654-.922 1.191-1.532l.247-.279C19.562 12.29 20 11.37 20 9.28 20 5.818 17.104 3 13.518 3zm.005 2.414a1 1 0 01-.632 1.265A3.502 3.502 0 0010.5 10a1 1 0 01-2 0 5.502 5.502 0 013.758-5.218 1 1 0 011.265.632z"/></svg>