<?xml version="1.0" encoding="UTF-8"?>
<svg width="28px" height="28px" viewBox="0 0 28 28" version="1.1" xmlns="http://www.w3.org/2000/svg" xmlns:xlink="http://www.w3.org/1999/xlink">
    <!-- Generator: Sketch 61.2 (89653) - https://sketch.com -->
    <title>28dp/Logo Linkedin</title>
    <desc>Created with Sketch.</desc>
    <g id="28dp/Logo-Linkedin" stroke="none" stroke-width="1" fill="none" fill-rule="evenodd">
        <path d="M21,2 L7,2 C4.239,2 2,4.239 2,7 L2,21 C2,23.761 4.239,26 7,26 L21,26 C23.762,26 26,23.761 26,21 L26,7 C26,4.239 23.762,2 21,2 Z M10,21 L7,21 L7,10 L10,10 L10,21 Z M8.5,8.732 C7.534,8.732 6.75,7.942 6.75,6.968 C6.75,5.994 7.534,5.204 8.5,5.204 C9.466,5.204 10.25,5.994 10.25,6.968 C10.25,7.942 9.467,8.732 8.5,8.732 Z M22,21 L19,21 L19,15.396 C19,12.028 15,12.283 15,15.396 L15,21 L12,21 L12,10 L15,10 L15,11.765 C16.396,9.179 22,8.988 22,14.241 L22,21 Z" id="Color" fill="#212121" fill-rule="nonzero"></path>
    </g>
</svg>