<svg xmlns="http://www.w3.org/2000/svg" width="28" height="28" viewBox="0 0 28 28">
  <path fill="#212121" d="M14,23 C18.9705627,23 23,18.9705627 23,14 C23,9.02943725 18.9705627,5 14,5 C9.02943725,5 5,9.02943725 5,14 C5,18.9705627 9.02943725,23 14,23 Z M14,25 C7.92486775,25 3,20.0751322 3,14 C3,7.92486775 7.92486775,3 14,3 C20.0751322,3 25,7.92486775 25,14 C25,20.0751322 20.0751322,25 14,25 Z M9.5,15 C8.94771525,15 8.5,14.5522847 8.5,14 C8.5,13.4477153 8.94771525,13 9.5,13 L18.5,13 C19.0522847,13 19.5,13.4477153 19.5,14 C19.5,14.5522847 19.0522847,15 18.5,15 L9.5,15 Z"/>
</svg>
