<svg xmlns="http://www.w3.org/2000/svg" width="28" height="28"><g fill="none"><path fill="#212121" d="M12.778 5.29l-.715.213A6.78 6.78 0 007.223 12v5.667c0 1.293-.819 2.11-2.112 2.11A.111.111 0 005 19.89v1.222h18V19.89a.111.111 0 00-.111-.111c-1.293 0-2.111-.818-2.111-2.111V12a6.78 6.78 0 00-4.841-6.497l-.715-.213V4.222a1.222 1.222 0 10-2.444 0V5.29zm-1.976-1.467a3.223 3.223 0 016.396 0A8.782 8.782 0 0122.778 12v5.667c0 .188-.078.11.11.11 1.167 0 2.112.946 2.112 2.112v1.222a2 2 0 01-2 2H5a2 2 0 01-2-2V19.89a2.11 2.11 0 012.111-2.111c.189 0 .111.077.111-.111V12a8.782 8.782 0 015.58-8.177zM12 24.5h4a1 1 0 010 2h-4a1 1 0 010-2z"/><circle cx="22" cy="7" r="4" fill="#F65858"/></g></svg>