<svg xmlns="http://www.w3.org/2000/svg" width="28" height="28" viewBox="0 0 28 28">
  <path fill="#212121" d="M5.5,16.5 C4.11928813,16.5 3,15.3807119 3,14 C3,12.6192881 4.11928813,11.5 5.5,11.5 C6.88071187,11.5 8,12.6192881 8,14 C8,15.3807119 6.88071187,16.5 5.5,16.5 Z M14,16.5 C12.6192881,16.5 11.5,15.3807119 11.5,14 C11.5,12.6192881 12.6192881,11.5 14,11.5 C15.3807119,11.5 16.5,12.6192881 16.5,14 C16.5,15.3807119 15.3807119,16.5 14,16.5 Z M22.5,16.5 C21.1192881,16.5 20,15.3807119 20,14 C20,12.6192881 21.1192881,11.5 22.5,11.5 C23.8807119,11.5 25,12.6192881 25,14 C25,15.3807119 23.8807119,16.5 22.5,16.5 Z"/>
</svg>
