<svg xmlns="http://www.w3.org/2000/svg" width="28" height="28"><path fill="#212121" d="M14 27.125C7.667 20.792 4.5 15.25 4.5 10.5a9.5 9.5 0 0119 0c0 4.75-3.167 10.292-9.5 16.625zm1.667-13.908c.001.94.647 1.77 1.562 2.051.46.142.932.209 1.413.229.343.013.685-.009 1.002-.156.25-.117.367-.309.355-.564a.578.578 0 00-.398-.552 1.398 1.398 0 00-.282-.08c-.29-.05-.583-.09-.872-.144-.478-.088-.678-.324-.684-.775-.006-.399.11-.775.242-1.147.24-.681.564-1.33.875-1.985.3-.632.614-1.26.826-1.925.116-.366.172-.732.066-1.11-.161-.574-.53-.959-1.165-1.07-.581-.1-1.16-.112-1.686.212-.175.107-.343.081-.495-.044-.115-.095-.226-.195-.34-.293-.536-.462-1.245-.485-1.82-.063-.233.17-.428.382-.68.53-.226.132-.453.17-.703.045a13.03 13.03 0 00-.73-.326c-.249-.105-.49-.235-.77-.257-.886-.07-1.813.421-2.204 1.168a9.89 9.89 0 00-.45 1.02c-.62 1.6-1.124 3.232-1.647 4.86-.234.727.042 1.444.703 1.837.515.307 1.08.383 1.663.219.473-.133.732-.489.914-.888.601-1.326 1.143-2.674 1.717-4.01.158-.367.311-.736.478-1.1.17-.367.656-.492.944-.249.176.149.222.347.205.558-.02.226-.113.435-.201.643-.373.88-.753 1.76-1.128 2.64-.076.178-.158.355-.192.546-.057.328.082.619.37.735.293.118.597.138.901.035.354-.12.566-.379.728-.678.56-1.026 1.116-2.055 1.675-3.08.258-.475.521-.947.785-1.418.098-.175.213-.34.396-.45a.506.506 0 01.513-.015c.165.086.177.244.17.4a.685.685 0 01-.064.244c-.072.162-.14.327-.22.486-.466.914-.938 1.824-1.399 2.74-.194.386-.397.775-.373 1.181z"/></svg>