<svg xmlns="http://www.w3.org/2000/svg" width="28" height="28" viewBox="0 0 28 28">
  <path fill="#212121" d="M14,27.125 C7.66666667,20.7916667 4.5,15.25 4.5,10.5 C4.5,5.25329488 8.75329488,1 14,1 C19.2467051,1 23.5,5.25329488 23.5,10.5 C23.5,15.25 20.3333333,20.7916667 14,27.125 Z M6.5,10.5 C6.5,14.2695456 8.96013813,18.8842416 14.0000026,24.2524461 C19.0398627,18.88424 21.5,14.2695449 21.5,10.5 C21.5,6.35786438 18.1421356,3 14,3 C9.85786438,3 6.5,6.35786438 6.5,10.5 Z M14,14.5 C11.790861,14.5 10,12.709139 10,10.5 C10,8.290861 11.790861,6.5 14,6.5 C16.209139,6.5 18,8.290861 18,10.5 C18,12.709139 16.209139,14.5 14,14.5 Z M14,12.5 C15.1045695,12.5 16,11.6045695 16,10.5 C16,9.3954305 15.1045695,8.5 14,8.5 C12.8954305,8.5 12,9.3954305 12,10.5 C12,11.6045695 12.8954305,12.5 14,12.5 Z"/>
</svg>
