<?xml version="1.0" encoding="UTF-8"?>
<svg width="28px" height="28px" viewBox="0 0 28 28" version="1.1" xmlns="http://www.w3.org/2000/svg" xmlns:xlink="http://www.w3.org/1999/xlink">
    <!-- Generator: Sketch 61.2 (89653) - https://sketch.com -->
    <title>28dp/Plus Circled</title>
    <desc>Created with Sketch.</desc>
    <g id="28dp/Plus-Circled" stroke="none" stroke-width="1" fill="none" fill-rule="evenodd">
        <path d="M14,23 C18.9705627,23 23,18.9705627 23,14 C23,9.02943725 18.9705627,5 14,5 C9.02943725,5 5,9.02943725 5,14 C5,18.9705627 9.02943725,23 14,23 Z M14,3 C20.0751322,3 25,7.92486775 25,14 C25,20.0751322 20.0751322,25 14,25 C7.92486775,25 3,20.0751322 3,14 C3,7.92486775 7.92486775,3 14,3 Z M14,8.5 C13.4477153,8.5 13,8.94771525 13,9.5 L13,9.5 L13,13 L9.5,13 C8.94771525,13 8.5,13.4477153 8.5,14 C8.5,14.5522847 8.94771525,15 9.5,15 L9.5,15 L13,15 L13,18.5 C13,19.0522847 13.4477153,19.5 14,19.5 C14.5522847,19.5 15,19.0522847 15,18.5 L15,18.5 L15,15 L18.5,15 C19.0522847,15 19.5,14.5522847 19.5,14 C19.5,13.4477153 19.0522847,13 18.5,13 L18.5,13 L15,13 L15,9.5 C15,8.94771525 14.5522847,8.5 14,8.5 Z" id="Color" fill="#212121" fill-rule="nonzero"></path>
    </g>
</svg>