<svg xmlns="http://www.w3.org/2000/svg" width="28" height="28" viewBox="0 0 28 28">
  <path fill="#212121" d="M19.1943982,17.0730779 L24.5606602,22.4393398 C25.1464466,23.0251263 25.1464466,23.9748737 24.5606602,24.5606602 C23.9748737,25.1464466 23.0251263,25.1464466 22.4393398,24.5606602 L17.0730779,19.1943982 C15.5076214,20.3302311 13.5820272,21 11.5,21 C6.25329488,21 2,16.7467051 2,11.5 C2,6.25329488 6.25329488,2 11.5,2 C16.7467051,2 21,6.25329488 21,11.5 C21,13.5820272 20.3302311,15.5076214 19.1943982,17.0730779 Z M11.5,18 C15.0898509,18 18,15.0898509 18,11.5 C18,7.91014913 15.0898509,5 11.5,5 C7.91014913,5 5,7.91014913 5,11.5 C5,15.0898509 7.91014913,18 11.5,18 Z"/>
</svg>
