<svg xmlns="http://www.w3.org/2000/svg" width="28" height="28" viewBox="0 0 28 28">
  <path fill="#212121" d="M18.8875269,17.4733134 L24.7071068,23.2928932 C25.0976311,23.6834175 25.0976311,24.3165825 24.7071068,24.7071068 C24.3165825,25.0976311 23.6834175,25.0976311 23.2928932,24.7071068 L17.4733134,18.8875269 C15.8414595,20.2086338 13.7631465,21 11.5,21 C6.25329488,21 2,16.7467051 2,11.5 C2,6.25329488 6.25329488,2 11.5,2 C16.7467051,2 21,6.25329488 21,11.5 C21,13.7631465 20.2086338,15.8414595 18.8875269,17.4733134 Z M11.5,19 C15.6421356,19 19,15.6421356 19,11.5 C19,7.35786438 15.6421356,4 11.5,4 C7.35786438,4 4,7.35786438 4,11.5 C4,15.6421356 7.35786438,19 11.5,19 Z"/>
</svg>
