<svg xmlns="http://www.w3.org/2000/svg" width="28" height="28" viewBox="0 0 28 28">
  <path fill="#212121" d="M22.8938252,6.63999231 L12.2026795,16.4964636 L20.2877604,20.5390041 L22.8938252,6.63999231 Z M20.2153599,6.3890868 L4.89189565,12.8410717 L10.2896023,15.539925 L20.2153599,6.3890868 Z M15.0483302,20.155357 L11.3123699,23.8913173 C10.6824051,24.5212822 9.60526316,24.0751154 9.60526316,23.1842105 L9.60526316,17.4338235 L2.0527864,13.6575851 C1.28862965,13.2755067 1.32454085,12.1730603 2.111943,11.8415225 L24.111943,2.57836462 C24.846325,2.26915115 25.6297179,2.90111151 25.4828722,3.68428854 L22.009188,22.2106043 C21.8867506,22.8636038 21.1733407,23.2178622 20.5791022,22.920743 L15.0483302,20.155357 Z M13.1627122,19.212548 L11.6052632,18.4338235 L11.6052632,20.769997 L13.1627122,19.212548 Z"/>
</svg>
