<svg xmlns="http://www.w3.org/2000/svg" width="28" height="28"><path fill="#212121" d="M22.73 10.938H23a3 3 0 013 3v.124a3 3 0 01-3 3h-.27a9.197 9.197 0 01-.391.946l.19.19a3 3 0 010 4.243l-.088.088a3 3 0 01-4.243 0l-.19-.19a9.197 9.197 0 01-.945.392V23a3 3 0 01-3 3h-.126a3 3 0 01-3-3v-.27a9.197 9.197 0 01-.945-.391l-.19.19a3 3 0 01-4.243 0l-.088-.088a3 3 0 010-4.243l.19-.19a9.197 9.197 0 01-.392-.945H5a3 3 0 01-3-3v-.126a3 3 0 013-3h.27c.112-.322.243-.637.391-.945l-.19-.19a3 3 0 010-4.243l.088-.088a3 3 0 014.243 0l.19.19c.308-.148.623-.279.945-.392V5a3 3 0 013-3h.126a3 3 0 013 3v.27c.322.112.637.243.945.391l.19-.19a3 3 0 014.243 0l.088.088a3 3 0 010 4.243l-.19.19c.148.308.279.623.392.945zM20.4 9.101l.715-.715a1 1 0 000-1.414l-.088-.088a1 1 0 00-1.414 0l-.715.714a1 1 0 01-1.216.154 7.2 7.2 0 00-1.869-.775 1 1 0 01-.75-.968V5a1 1 0 00-1-1h-.126a1 1 0 00-1 1v1.01a1 1 0 01-.75.968 7.2 7.2 0 00-1.87.775A1 1 0 019.103 7.6l-.715-.714a1 1 0 00-1.414 0l-.088.088a1 1 0 000 1.414l.714.715a1 1 0 01.154 1.216 7.2 7.2 0 00-.775 1.869 1 1 0 01-.968.75H5a1 1 0 00-1 1v.126a1 1 0 001 1h1.01a1 1 0 01.968.75 7.2 7.2 0 00.775 1.87 1 1 0 01-.154 1.215l-.714.715a1 1 0 000 1.414l.088.088a1 1 0 001.414 0l.715-.714a1 1 0 011.216-.154 7.2 7.2 0 001.869.775 1 1 0 01.75.968V23a1 1 0 001 1h.126a1 1 0 001-1v-1.01a1 1 0 01.75-.968 7.2 7.2 0 001.87-.775 1 1 0 011.215.154l.715.714a1 1 0 001.414 0l.088-.088a1 1 0 000-1.414l-.714-.715a1 1 0 01-.154-1.216 7.2 7.2 0 00.775-1.869 1 1 0 01.968-.75H23a1 1 0 001-1v-.126a1 1 0 00-1-1h-1.01a1 1 0 01-.968-.75 7.2 7.2 0 00-.775-1.87 1 1 0 01.154-1.215zM14 19.354a5.354 5.354 0 110-10.708 5.354 5.354 0 010 10.708zm0-2a3.354 3.354 0 100-6.708 3.354 3.354 0 000 6.708z"/></svg>