<svg xmlns="http://www.w3.org/2000/svg" width="28" height="28" viewBox="0 0 28 28">
  <path fill="#212121" d="M8.5874886,23.4753014 C7.85386122,23.8609921 6.99642879,23.238031 7.13653915,22.4211249 L8.17023685,16.3942049 L3.79142315,12.1259164 C3.19790613,11.5473803 3.52541617,10.539408 4.34563652,10.420223 L10.3970082,9.54090726 L13.1032639,4.05743429 C13.4700776,3.31418857 14.5299224,3.31418857 14.8967361,4.05743429 L17.6029918,9.54090726 L23.6543635,10.420223 C24.4745838,10.539408 24.8020939,11.5473803 24.2085769,12.1259164 L19.8297632,16.3942049 L20.8634608,22.4211249 C21.0035712,23.238031 20.1461388,23.8609921 19.4125114,23.4753014 L14,20.6297757 L8.5874886,23.4753014 Z M13.5346589,18.6148686 C13.8259829,18.4617105 14.1740171,18.4617105 14.4653411,18.6148686 L18.5497215,20.7621544 L17.7696743,16.21413 C17.7140363,15.889736 17.8215848,15.5587358 18.0572709,15.3289986 L21.361604,12.1080699 L16.7951279,11.444522 C16.4694178,11.3971936 16.1878522,11.1926242 16.0421902,10.8974807 L14,6.75955146 L11.9578098,10.8974807 C11.8121478,11.1926242 11.5305822,11.3971936 11.2048721,11.444522 L6.63839598,12.1080699 L9.94272911,15.3289986 C10.1784152,15.5587358 10.2859637,15.889736 10.2303257,16.21413 L9.4502785,20.7621544 L13.5346589,18.6148686 Z"/>
</svg>
