<svg xmlns="http://www.w3.org/2000/svg" width="28" height="28"><path fill="#212121" d="M8.587 23.475a1 1 0 01-1.45-1.054l1.033-6.027-4.379-4.268a1 1 0 01.555-1.706l6.051-.88 2.706-5.483a1 1 0 011.794 0l2.706 5.484 6.051.88a1 1 0 01.555 1.705l-4.38 4.268 1.034 6.027a1 1 0 01-1.45 1.054L14 20.63l-5.413 2.845zm4.948-4.86a1 1 0 01.93 0l4.085 2.147-.78-4.548a1 1 0 01.287-.885l3.305-3.22-4.567-.664a1 1 0 01-.753-.548L14 6.76l-2.042 4.137a1 1 0 01-.753.548l-4.567.663 3.305 3.221a1 1 0 01.287.885l-.78 4.548 4.085-2.147z"/></svg>