<svg xmlns="http://www.w3.org/2000/svg" width="28" height="28"><path fill="#212121" d="M11.536 21.48a10.41 10.41 0 002.464.293c5.247 0 9.5-3.867 9.5-8.637 0-4.77-4.253-8.636-9.5-8.636s-9.5 3.867-9.5 8.636c0 2.502 1.17 4.755 3.039 6.332L7.09 23.5l4.445-2.02zM14 2.5c6.311 0 11.5 4.717 11.5 10.636 0 5.92-5.189 10.637-11.5 10.637-.756 0-1.503-.068-2.234-.201l-3.847 1.749c-1.413.642-2.987-.5-2.816-2.042l.338-3.036C3.572 18.32 2.5 15.81 2.5 13.136 2.5 7.217 7.689 2.5 14 2.5zm0 6a1 1 0 00-1 1V12h-2.5a1 1 0 00-.117 1.993L10.5 14H13v2.5a1 1 0 00.883.993L14 17.5a1 1 0 001-1V14h2.5a1 1 0 000-2H15V9.5a1 1 0 00-.883-.993z"/></svg>