<svg width="28" height="28" xmlns="http://www.w3.org/2000/svg"><path d="M9.167 24.641c9.811 0 15.18-8.136 15.18-15.18 0-.228 0-.457-.01-.686A10.869 10.869 0 0027 6.007c-.957.427-1.987.708-3.07.843a5.368 5.368 0 002.352-2.955 10.612 10.612 0 01-3.392 1.29A5.325 5.325 0 0019 3.5a5.342 5.342 0 00-5.338 5.337c0 .417.052.822.135 1.218C9.365 9.836 5.432 7.703 2.8 4.478a5.336 5.336 0 00-.718 2.684 5.35 5.35 0 002.372 4.443 5.396 5.396 0 01-2.414-.666v.073a5.346 5.346 0 004.277 5.233 5.201 5.201 0 01-1.405.187c-.343 0-.676-.03-.999-.093a5.335 5.335 0 004.984 3.704 10.7 10.7 0 01-6.628 2.289c-.426 0-.853-.021-1.269-.073a15.176 15.176 0 008.167 2.382" fill="#212121" fill-rule="nonzero"/></svg>