<svg width="28" height="28" xmlns="http://www.w3.org/2000/svg"><path d="M14.34 5c1.56.008 8.039.066 9.818.543 1.119.299 2 1.18 2.299 2.298C27 9.87 27 14.1 27 14.1v.01c0 .23-.016 4.278-.543 6.248a3.256 3.256 0 01-2.299 2.298c-1.82.488-8.562.538-9.92.543h-.477c-1.357-.005-8.099-.055-9.92-.543a3.256 3.256 0 01-2.298-2.298c-.481-1.796-.536-5.32-.542-6.102v-.313c.006-.782.06-4.305.542-6.102.3-1.118 1.18-2 2.299-2.298C5.622 5.066 12.1 5.008 13.66 5zm-2.94 5.2V18l6.755-3.9-6.755-3.9z" fill="#212121" fill-rule="nonzero"/></svg>