<svg xmlns="http://www.w3.org/2000/svg" width="18" height="18" viewBox="0 0 18 18">
  <path fill="#A2A2A2" d="M11.7456127,13.1793799 L4.72451278,6.40625525 C4.26476727,7.1624711 4,8.05031569 4,9 C4,11.7614237 6.23857625,14 9,14 C10.014026,14 10.9575491,13.6981411 11.7456127,13.1793799 Z M13.1640373,11.7687798 C13.6921846,10.9760697 14,10.0239819 14,9 C14,6.23857625 11.7614237,4 9,4 C7.91157104,4 6.9043707,4.34778109 6.08346198,4.93828027 L13.1640373,11.7687798 Z M9,16 C5.13400675,16 2,12.8659932 2,9 C2,5.13400675 5.13400675,2 9,2 C12.8659932,2 16,5.13400675 16,9 C16,12.8659932 12.8659932,16 9,16 Z"/>
</svg>
