<svg xmlns="http://www.w3.org/2000/svg" width="18" height="18" viewBox="0 0 18 18">
  <path fill="#A2A2A2" d="M9,16 C5.13400675,16 2,12.8659932 2,9 C2,5.13400675 5.13400675,2 9,2 C12.8659932,2 16,5.13400675 16,9 C16,12.8659932 12.8659932,16 9,16 Z M12.3160589,6.2704628 L7.66666667,10.629268 L5.68394113,8.7704628 C5.28102886,8.39273254 4.64819305,8.4131466 4.2704628,8.81605887 C3.89273254,9.21897114 3.9131466,9.85180695 4.31605887,10.2295372 L6.98272554,12.7295372 C7.36738374,13.0901543 7.9659496,13.0901543 8.3506078,12.7295372 L13.6839411,7.7295372 C14.0868534,7.35180695 14.1072675,6.71897114 13.7295372,6.31605887 C13.3518069,5.9131466 12.7189711,5.89273254 12.3160589,6.2704628 Z"/>
</svg>
