<svg xmlns="http://www.w3.org/2000/svg" width="18" height="18" viewBox="0 0 18 18">
  <path fill="#A2A2A2" d="M9,17 C4.581722,17 1,13.418278 1,9 C1,4.581722 4.581722,1 9,1 C13.418278,1 17,4.581722 17,9 C17,13.418278 13.418278,17 9,17 Z M8.25,8.68933983 L5.46966991,11.4696699 C5.1767767,11.7625631 5.1767767,12.2374369 5.46966991,12.5303301 C5.76256313,12.8232233 6.23743687,12.8232233 6.53033009,12.5303301 L9.53033009,9.53033009 C9.67098237,9.3896778 9.75,9.19891237 9.75,9 L9.75,4 C9.75,3.58578644 9.41421356,3.25 9,3.25 C8.58578644,3.25 8.25,3.58578644 8.25,4 L8.25,8.68933983 Z"/>
</svg>
