<svg xmlns="http://www.w3.org/2000/svg" width="18" height="18" viewBox="0 0 18 18">
  <path fill="#A2A2A2" d="M9,15 C12.3137085,15 15,12.3137085 15,9 C15,5.6862915 12.3137085,3 9,3 C5.6862915,3 3,5.6862915 3,9 C3,12.3137085 5.6862915,15 9,15 Z M9,17 C4.581722,17 1,13.418278 1,9 C1,4.581722 4.581722,1 9,1 C13.418278,1 17,4.581722 17,9 C17,13.418278 13.418278,17 9,17 Z M8.25,8.73691662 L8.25,5 C8.25,4.58578644 8.58578644,4.25 9,4.25 C9.41421356,4.25 9.75,4.58578644 9.75,5 L9.75,9 C9.75,9.17030214 9.69204044,9.33553368 9.5856543,9.46851792 L7.5856543,11.9685473 C7.32689899,12.2919953 6.85493001,12.344439 6.53148208,12.0856837 C6.20803414,11.8269284 6.1555904,11.3549594 6.4143457,11.0315115 L8.25,8.73691662 Z"/>
</svg>
