<svg xmlns="http://www.w3.org/2000/svg" width="18" height="18" viewBox="0 0 18 18">
  <path fill="#A2A2A2" d="M9,16 C5.13400675,16 2,12.8659932 2,9 C2,5.13400675 5.13400675,2 9,2 C12.8659932,2 16,5.13400675 16,9 C16,12.8659932 12.8659932,16 9,16 Z M10.4142136,9 L11.8284271,7.58578644 C12.2189514,7.19526215 12.2189514,6.56209717 11.8284271,6.17157288 C11.4379028,5.78104858 10.8047379,5.78104858 10.4142136,6.17157288 L9,7.58578644 L7.58578644,6.17157288 C7.19526215,5.78104858 6.56209717,5.78104858 6.17157288,6.17157288 C5.78104858,6.56209717 5.78104858,7.19526215 6.17157288,7.58578644 L7.58578644,9 L6.17157288,10.4142136 C5.78104858,10.8047379 5.78104858,11.4379028 6.17157288,11.8284271 C6.56209717,12.2189514 7.19526215,12.2189514 7.58578644,11.8284271 L9,10.4142136 L10.4142136,11.8284271 C10.8047379,12.2189514 11.4379028,12.2189514 11.8284271,11.8284271 C12.2189514,11.4379028 12.2189514,10.8047379 11.8284271,10.4142136 L10.4142136,9 Z"/>
</svg>
