<svg xmlns="http://www.w3.org/2000/svg" width="18" height="18" viewBox="0 0 18 18">
  <path fill="#A2A2A2" d="M3,5 L3,13 L15,13 L15,5 L3,5 Z M3,3 L15,3 C16.1045695,3 17,3.8954305 17,5 L17,13 C17,14.1045695 16.1045695,15 15,15 L3,15 C1.8954305,15 1,14.1045695 1,13 L1,5 C1,3.8954305 1.8954305,3 3,3 Z M3,6.5 L15,6.5 L15,9 L3,9 L3,6.5 Z M4.5,12 C4.22385763,12 4,11.7761424 4,11.5 C4,11.2238576 4.22385763,11 4.5,11 L8.5,11 C8.77614237,11 9,11.2238576 9,11.5 C9,11.7761424 8.77614237,12 8.5,12 L4.5,12 Z"/>
</svg>
