<svg xmlns="http://www.w3.org/2000/svg" width="18" height="18" viewBox="0 0 18 18">
  <path fill="#A2A2A2" d="M8,8.58686491 L8,3 C8,2.44771525 8.44771525,2 9,2 C9.55228475,2 10,2.44771525 10,3 L10,8.61979299 L12.3815331,6.28580064 C12.7759745,5.89923316 13.4091073,5.90561625 13.7956748,6.30005767 C14.1822423,6.69449908 14.1758592,7.32763189 13.7814178,7.71419936 L9.69994233,11.7141994 C9.30839777,12.0979278 8.68089538,12.0948639 8.2931167,11.7073302 L4.29058792,7.70733019 C3.89994025,7.31692932 3.89974017,6.68376437 4.29014104,6.2931167 C4.68054191,5.90246902 5.31370685,5.90226894 5.70435453,6.29266981 L8,8.58686491 Z M3,15.5 C2.44771525,15.5 2,15.0522847 2,14.5 C2,13.9477153 2.44771525,13.5 3,13.5 L15,13.5 C15.5522847,13.5 16,13.9477153 16,14.5 C16,15.0522847 15.5522847,15.5 15,15.5 L3,15.5 Z"/>
</svg>
