<svg xmlns="http://www.w3.org/2000/svg" width="18" height="18" viewBox="0 0 18 18">
  <path fill="#A2A2A2" d="M13,14 C13,15.1045695 12.1045695,16 11,16 L4,16 C2.8954305,16 2,15.1045695 2,14 L2,7 C2,5.8954305 2.8954305,5 4,5 L4,11 C4,12.6568542 5.34314575,14 7,14 L13,14 Z M7,2 L14,2 C15.1045695,2 16,2.8954305 16,4 L16,11 C16,12.1045695 15.1045695,13 14,13 L7,13 C5.8954305,13 5,12.1045695 5,11 L5,4 C5,2.8954305 5.8954305,2 7,2 Z M11,7 L11,5 C11,4.72385763 10.7761424,4.5 10.5,4.5 C10.2238576,4.5 10,4.72385763 10,5 L10,7 L8,7 C7.72385763,7 7.5,7.22385763 7.5,7.5 C7.5,7.77614237 7.72385763,8 8,8 L10,8 L10,10 C10,10.2761424 10.2238576,10.5 10.5,10.5 C10.7761424,10.5 11,10.2761424 11,10 L11,8 L13,8 C13.2761424,8 13.5,7.77614237 13.5,7.5 C13.5,7.22385763 13.2761424,7 13,7 L11,7 Z"/>
</svg>
