<svg xmlns="http://www.w3.org/2000/svg" width="18" height="18" viewBox="0 0 18 18">
  <path fill="#A2A2A2" d="M9,15 C6.05448133,15 3.38781467,13 1,9 C3.38781467,5 6.05448133,3 9,3 C11.9455187,3 14.6121853,5 17,9 C14.6121853,13 11.9455187,15 9,15 Z M9,5 C7.09680328,5 5.2190664,6.25858642 3.36721265,9 C5.2190664,11.7414136 7.09680328,13 9,13 C10.9031967,13 12.7809336,11.7414136 14.6327874,9 C12.7809336,6.25858642 10.9031967,5 9,5 Z M9,12 C7.34314575,12 6,10.6568542 6,9 C6,7.34314575 7.34314575,6 9,6 C10.6568542,6 12,7.34314575 12,9 C12,10.6568542 10.6568542,12 9,12 Z"/>
</svg>
