<svg xmlns="http://www.w3.org/2000/svg" width="18" height="18"><path fill="#A2A2A2" d="M14.288 5.433C15.228 6.358 16.133 7.547 17 9c-2.388 4-5.054 6-8 6-1.16 0-2.276-.31-3.35-.93L3.622 16.1a1 1 0 11-1.414-1.415l1.82-1.82C2.972 11.903 1.964 10.615 1 9c2.388-4 5.054-6 8-6 1.297 0 2.54.388 3.729 1.163l2.206-2.206a1 1 0 011.414 1.414l-2.061 2.062zm-3.015.186C10.519 5.202 9.762 5 9 5 7.097 5 5.22 6.259 3.367 9c.688 1.018 1.379 1.831 2.073 2.452l.958-.958a3 3 0 014.096-4.096l.779-.779zm1.603 1.226L11.8 7.92a3 3 0 01-3.88 3.88l-.785.785A4.48 4.48 0 009 13c1.903 0 3.78-1.259 5.633-4-.583-.863-1.169-1.58-1.757-2.155z"/></svg>