<svg xmlns="http://www.w3.org/2000/svg" width="18" height="18" viewBox="0 0 18 18">
  <path fill="#A2A2A2" d="M4,4 L14,4 C14.5522847,4 15,4.44771525 15,5 C15,5.55228475 14.5522847,6 14,6 L4,6 C3.44771525,6 3,5.55228475 3,5 C3,4.44771525 3.44771525,4 4,4 Z M4,8 L11,8 C11.5522847,8 12,8.44771525 12,9 C12,9.55228475 11.5522847,10 11,10 L4,10 C3.44771525,10 3,9.55228475 3,9 C3,8.44771525 3.44771525,8 4,8 Z M4,12 L8,12 C8.55228475,12 9,12.4477153 9,13 C9,13.5522847 8.55228475,14 8,14 L4,14 C3.44771525,14 3,13.5522847 3,13 C3,12.4477153 3.44771525,12 4,12 Z"/>
</svg>
