<svg xmlns="http://www.w3.org/2000/svg" width="18" height="18"><path fill="#A2A2A2" d="M5.132 7C5.045 7.639 5 8.31 5 9s.045 1.361.132 2H2.29A7.001 7.001 0 012 9c0-.695.101-1.366.29-2h2.842zm1.013 0h5.71c.094.63.145 1.302.145 2s-.05 1.37-.145 2h-5.71A13.607 13.607 0 016 9c0-.698.05-1.37.145-2zm6.723 0h2.842c.189.634.29 1.305.29 2 0 .695-.101 1.366-.29 2h-2.842c.087-.639.132-1.31.132-2s-.045-1.361-.132-2zM7.19 15.764A7.017 7.017 0 012.674 12h2.634c.356 1.638 1.007 2.983 1.882 3.764zm3.62 0c.875-.78 1.526-2.126 1.882-3.764h2.634a7.017 7.017 0 01-4.516 3.764zM11.662 12c-.5 2.08-1.505 3.5-2.662 3.5S6.838 14.08 6.338 12h5.324zM7.19 2.236C6.315 3.016 5.664 4.362 5.308 6H2.674A7.017 7.017 0 017.19 2.236zm3.62 0A7.017 7.017 0 0115.326 6h-2.634c-.356-1.638-1.007-2.983-1.882-3.764zM11.662 6H6.338C6.838 3.92 7.843 2.5 9 2.5s2.162 1.42 2.662 3.5z"/></svg>