<svg xmlns="http://www.w3.org/2000/svg" width="18" height="18" viewBox="0 0 18 18">
  <path fill="#A2A2A2" d="M5.13210581,7 C5.04522913,7.63899314 5,8.31013042 5,9 C5,9.68986958 5.04522913,10.3610069 5.13210581,11 L2.28987868,11 C2.10127754,10.3662906 2,9.69497261 2,9 C2,8.30502739 2.10127754,7.63370941 2.28987868,7 L5.13210581,7 Z M6.14469202,7 L11.855308,7 C11.949249,7.63006248 12,8.30218991 12,9 C12,9.69781009 11.949249,10.3699375 11.855308,11 L6.14469202,11 C6.05075103,10.3699375 6,9.69781009 6,9 C6,8.30218991 6.05075103,7.63006248 6.14469202,7 Z M12.8678942,7 L15.7101213,7 C15.8987225,7.63370941 16,8.30502739 16,9 C16,9.69497261 15.8987225,10.3662906 15.7101213,11 L12.8678942,11 C12.9547709,10.3610069 13,9.68986958 13,9 C13,8.31013042 12.9547709,7.63899314 12.8678942,7 Z M7.18981774,15.7636919 C5.19153315,15.2302446 3.54524286,13.8347859 2.67363116,12 L5.30764064,12 C5.66379881,13.6379196 6.31540786,14.9831667 7.18981774,15.7636919 Z M10.8101823,15.7636919 C11.6845921,14.9831667 12.3362012,13.6379196 12.6923594,12 L15.3263688,12 C14.4547571,13.8347859 12.8084668,15.2302446 10.8101823,15.7636919 Z M11.6620566,12 C11.1617372,14.07989 10.1574112,15.5 9,15.5 C7.84258882,15.5 6.83826278,14.07989 6.33794337,12 L11.6620566,12 Z M7.18981774,2.23630808 C6.31540786,3.0168333 5.66379881,4.36208038 5.30764064,6 L2.67363116,6 C3.54524286,4.16521413 5.19153315,2.76975539 7.18981774,2.23630808 Z M10.8101823,2.23630808 C12.8084668,2.76975539 14.4547571,4.16521413 15.3263688,6 L12.6923594,6 C12.3362012,4.36208038 11.6845921,3.0168333 10.8101823,2.23630808 Z M11.6620566,6 L6.33794337,6 C6.83826278,3.92010997 7.84258882,2.5 9,2.5 C10.1574112,2.5 11.1617372,3.92010997 11.6620566,6 Z"/>
</svg>
