<svg xmlns="http://www.w3.org/2000/svg" width="18" height="18" viewBox="0 0 18 18">
  <path fill="#A2A2A2" d="M5,8 C3.34314575,8 2,6.65685425 2,5 C2,3.34314575 3.34314575,2 5,2 C6.65685425,2 8,3.34314575 8,5 C8,6.65685425 6.65685425,8 5,8 Z M5,16 C3.34314575,16 2,14.6568542 2,13 C2,11.3431458 3.34314575,10 5,10 C6.65685425,10 8,11.3431458 8,13 C8,14.6568542 6.65685425,16 5,16 Z M13,8 C11.3431458,8 10,6.65685425 10,5 C10,3.34314575 11.3431458,2 13,2 C14.6568542,2 16,3.34314575 16,5 C16,6.65685425 14.6568542,8 13,8 Z M13,16 C11.3431458,16 10,14.6568542 10,13 C10,11.3431458 11.3431458,10 13,10 C14.6568542,10 16,11.3431458 16,13 C16,14.6568542 14.6568542,16 13,16 Z"/>
</svg>
