<svg xmlns="http://www.w3.org/2000/svg" width="18" height="18" viewBox="0 0 18 18">
  <path fill="#A2A2A2" d="M6.72250473,12.731989 C6.69221324,11.9753422 6.54328865,11.3870974 6.27573097,10.9672546 C5.36055038,9.53199465 4,9.03346312 4,6.35319558 C4,3.67292804 6.23318548,1.5 8.9882321,1.5 L9.0117679,1.5 C11.7668145,1.5 14,3.67292804 14,6.35319558 C14,9.03346312 12.638997,9.53199465 11.724269,10.9672546 C11.4564955,11.3870764 11.3075173,11.9752834 11.2773346,12.7318756 L11.2773365,12.7318757 C11.2602191,13.1609573 10.9073933,13.4999885 10.4779704,13.4999885 L7.52184032,13.4999644 C7.09247498,13.4999644 6.73968013,13.1610107 6.72250473,12.731989 Z M8,14.5 L10,14.5 C10.5522847,14.5 11,14.9477153 11,15.5 L11,15.5 C11,16.0522847 10.5522847,16.5 10,16.5 L8,16.5 C7.44771525,16.5 7,16.0522847 7,15.5 L7,15.5 C7,14.9477153 7.44771525,14.5 8,14.5 Z"/>
</svg>
