<svg xmlns="http://www.w3.org/2000/svg" width="18" height="18" viewBox="0 0 18 18">
  <path fill="#A2A2A2" d="M8.19238816,6 C8.19238816,5.44771525 8.64010341,5 9.19238816,5 C9.74467291,5 10.1923882,5.44771525 10.1923882,6 L10.1923882,12 C10.1923882,12.5522847 9.74467291,13 9.19238816,13 C8.64010341,13 8.19238816,12.5522847 8.19238816,12 L8.19238816,6 Z M13.6923882,7 C13.6923882,7.55228475 13.2446729,8 12.6923882,8 C12.1401034,8 11.6923882,7.55228475 11.6923882,7 L11.6923882,4.70833333 C11.6923882,3.50906649 10.5915883,2.5 9.19238816,2.5 C7.79318797,2.5 6.69238816,3.50906649 6.69238816,4.70833333 L6.69238816,7 C6.69238816,7.55228475 6.24467291,8 5.69238816,8 C5.14010341,8 4.69238816,7.55228475 4.69238816,7 L4.69238816,4.70833333 C4.69238816,2.36377303 6.7255951,0.5 9.19238816,0.5 C11.6591812,0.5 13.6923882,2.36377303 13.6923882,4.70833333 L13.6923882,7 Z M4.69238816,11 C4.69238816,10.4477153 5.14010341,10 5.69238816,10 C6.24467291,10 6.69238816,10.4477153 6.69238816,11 L6.69238816,13.2916667 C6.69238816,14.4909335 7.79318797,15.5 9.19238816,15.5 C10.5915883,15.5 11.6923882,14.4909335 11.6923882,13.2916667 L11.6923882,11 C11.6923882,10.4477153 12.1401034,10 12.6923882,10 C13.2446729,10 13.6923882,10.4477153 13.6923882,11 L13.6923882,13.2916667 C13.6923882,15.636227 11.6591812,17.5 9.19238816,17.5 C6.7255951,17.5 4.69238816,15.636227 4.69238816,13.2916667 L4.69238816,11 Z" transform="rotate(45 9.192 9)"/>
</svg>
