<svg xmlns="http://www.w3.org/2000/svg" width="18" height="18" viewBox="0 0 18 18">
  <path fill="#A2A2A2" d="M4.33333333,10.3945887 L4.33333333,8 C4.33333333,5.88598624 5.73900737,4.10028525 7.66666667,3.52658579 L7.66666667,3.33333333 C7.66666667,2.59695367 8.26362033,2 9,2 C9.73637967,2 10.3333333,2.59695367 10.3333333,3.33333333 L10.3333333,3.52658579 C10.5502223,3.59113509 10.7605032,3.67102764 10.9629173,3.76500475 L4.33333333,10.3945887 Z M3.24115263,11.4867694 L3.1534361,11.574486 C3.17989724,11.5426056 3.20927224,11.5132306 3.24115263,11.4867694 Z M7.05144298,13.3333333 L13.5260943,6.858682 C13.6179062,7.22392657 13.6666667,7.60626897 13.6666667,8 L13.6666667,10.6666667 C13.6666667,11.1111111 13.8888889,11.3333333 14.3333333,11.3333333 C14.7015232,11.3333333 15,11.6318102 15,12 L15,12.3333333 C15,12.8856181 14.5522847,13.3333333 14,13.3333333 L7.05144298,13.3333333 Z M15.8492424,1.70710678 C16.2397667,2.09763107 16.2397667,2.73079605 15.8492424,3.12132034 L3.12132034,15.8492424 C2.73079605,16.2397667 2.09763107,16.2397667 1.70710678,15.8492424 C1.31658249,15.4587181 1.31658249,14.8255531 1.70710678,14.4350288 L14.4350288,1.70710678 C14.8255531,1.31658249 15.4587181,1.31658249 15.8492424,1.70710678 Z M8,14.5 L10,14.5 C10.5522847,14.5 11,14.9477153 11,15.5 C11,16.0522847 10.5522847,16.5 10,16.5 L8,16.5 C7.44771525,16.5 7,16.0522847 7,15.5 C7,14.9477153 7.44771525,14.5 8,14.5 Z"/>
</svg>
