<svg xmlns="http://www.w3.org/2000/svg" width="18" height="18"><path fill="#A2A2A2" d="M4.333 10.395V8c0-2.114 1.406-3.9 3.334-4.473v-.194a1.333 1.333 0 112.666 0v.194c.217.064.428.144.63.238l-6.63 6.63zm-1.092 1.092l-.088.087a.67.67 0 01.088-.087zm3.81 1.846l6.475-6.474c.092.365.14.747.14 1.141v2.667c0 .444.223.666.667.666.369 0 .667.299.667.667v.333a1 1 0 01-1 1H7.051zM15.85 1.707a1 1 0 010 1.414L3.121 15.85a1 1 0 11-1.414-1.414L14.435 1.707a1 1 0 011.414 0zM8 14.5h2a1 1 0 010 2H8a1 1 0 010-2z"/></svg>