<svg xmlns="http://www.w3.org/2000/svg" width="18" height="18" viewBox="0 0 18 18">
  <path fill="#A2A2A2" d="M16,10.5672494 C13.3681122,9.67295586 10.9425849,9.83419953 8.75495675,11.0641631 C6.74072009,12.1966397 4.50095253,12.3040418 2,11.3714665 L2,4 C2,2.8954305 2.8954305,2 4,2 L14,2 C15.1045695,2 16,2.8954305 16,4 L16,10.5672494 Z M16,11.6285335 L16,14 C16,15.1045695 15.1045695,16 14,16 L4,16 C2.8954305,16 2,15.1045695 2,14 L2,12.4327506 C4.63188778,13.3270441 7.05741513,13.1658005 9.24504325,11.9358369 C11.2592799,10.8033603 13.4990475,10.6959582 16,11.6285335 Z M6.5,8.5 C7.6045695,8.5 8.5,7.6045695 8.5,6.5 C8.5,5.3954305 7.6045695,4.5 6.5,4.5 C5.3954305,4.5 4.5,5.3954305 4.5,6.5 C4.5,7.6045695 5.3954305,8.5 6.5,8.5 Z"/>
</svg>
