<svg xmlns="http://www.w3.org/2000/svg" width="18" height="18" viewBox="0 0 18 18">
  <path fill="#A2A2A2" d="M9,16 C5.13400675,16 2,12.8659932 2,9 C2,5.13400675 5.13400675,2 9,2 C12.8659932,2 16,5.13400675 16,9 C16,12.8659932 12.8659932,16 9,16 Z M10,8 L10,6 C10,5.44771525 9.55228475,5 9,5 C8.44771525,5 8,5.44771525 8,6 L8,8 L6,8 C5.44771525,8 5,8.44771525 5,9 C5,9.55228475 5.44771525,10 6,10 L8,10 L8,12 C8,12.5522847 8.44771525,13 9,13 C9.55228475,13 10,12.5522847 10,12 L10,10 L12,10 C12.5522847,10 13,9.55228475 13,9 C13,8.44771525 12.5522847,8 12,8 L10,8 Z"/>
</svg>
