<svg xmlns="http://www.w3.org/2000/svg" width="18" height="18" viewBox="0 0 18 18">
  <path fill="#A2A2A2" d="M5.25,7.5 L5.25,6 C5.25,3.92893219 6.92893219,2.25 9,2.25 C11.0710678,2.25 12.75,3.92893219 12.75,6 L12.75,7.5 L13,7.5 C14.1045695,7.5 15,8.3954305 15,9.5 L15,13.5 C15,14.6045695 14.1045695,15.5 13,15.5 L5,15.5 C3.8954305,15.5 3,14.6045695 3,13.5 L3,9.5 C3,8.3954305 3.8954305,7.5 5,7.5 L5.25,7.5 Z M6.75,7.5 L11.25,7.5 L11.25,6 C11.25,4.75735931 10.2426407,3.75 9,3.75 C7.75735931,3.75 6.75,4.75735931 6.75,6 L6.75,7.5 Z"/>
</svg>
