<svg xmlns="http://www.w3.org/2000/svg" width="18" height="18" viewBox="0 0 18 18">
  <path fill="#A2A2A2" d="M8.99747123,10 C6.78833223,10 4.99747123,8.209139 4.99747123,6 C4.99747123,3.790861 6.78833223,2 8.99747123,2 C11.2066102,2 12.9974712,3.790861 12.9974712,6 C12.9974712,8.209139 11.2066102,10 8.99747123,10 Z M16,14.5 L16,15.5 C16,15.7761424 15.7761424,16 15.5,16 L2.5,16 C2.22385763,16 2,15.7761424 2,15.5 L2,14.4848542 C3.59574031,12.368624 6.13475111,11 8.99430249,11 C11.8606701,11 14.4049671,12.3751564 16,14.5 Z"/>
</svg>
