<svg xmlns="http://www.w3.org/2000/svg" width="18" height="18" viewBox="0 0 18 18">
  <path fill="#A2A2A2" d="M9,16 C5.13400675,16 2,12.8659932 2,9 C2,5.13400675 5.13400675,2 9,2 C12.8659932,2 16,5.13400675 16,9 C16,12.8659932 12.8659932,16 9,16 Z M8.16275766,10.5632678 L9.77075766,10.5632678 L9.77075766,10.2632678 C9.84275766,9.62726778 10.4547577,9.13526778 11.0307577,8.58326778 C11.5467577,8.07926778 12.0147577,7.52726778 12.0147577,6.69926778 C12.0147577,5.42726778 11.1147577,4.53926778 9.35075766,4.53926778 C7.64675766,4.53926778 6.45875766,5.52326778 6.38675766,7.19126778 L8.05475766,7.19126778 C8.13875766,6.43526778 8.58275766,5.95526778 9.24275766,5.95526778 C9.87875766,5.95526778 10.1667577,6.29126778 10.1667577,6.84326778 C10.1667577,7.32326778 9.78275766,7.70726778 9.35075766,8.12726778 C8.78675766,8.67926778 8.16275766,9.26726778 8.16275766,10.2032678 L8.16275766,10.5632678 Z M8.95475766,13.745029 C9.55475766,13.745029 10.0467577,13.289029 10.0467577,12.713029 C10.0467577,12.125029 9.55475766,11.669029 8.95475766,11.669029 C8.34275766,11.669029 7.85075766,12.125029 7.85075766,12.713029 C7.85075766,13.289029 8.34275766,13.745029 8.95475766,13.745029 Z"/>
</svg>
