<svg xmlns="http://www.w3.org/2000/svg" width="18" height="18"><path fill="#A2A2A2" d="M9 16A7 7 0 119 2a7 7 0 010 14zm-.837-5.437H9.77v-.3c.072-.636.684-1.128 1.26-1.68.516-.504.984-1.056.984-1.884 0-1.272-.9-2.16-2.664-2.16-1.704 0-2.892.984-2.964 2.652h1.668c.084-.756.528-1.236 1.188-1.236.636 0 .924.336.924.888 0 .48-.384.864-.816 1.284-.564.552-1.188 1.14-1.188 2.076v.36zm.792 3.182c.6 0 1.092-.456 1.092-1.032 0-.588-.492-1.044-1.092-1.044-.612 0-1.104.456-1.104 1.044 0 .576.492 1.032 1.104 1.032z"/></svg>