<svg xmlns="http://www.w3.org/2000/svg" width="18" height="18"><path fill="#A2A2A2" d="M14.17 5.952c.281.478.5.997.641 1.548H17v3h-2.189c-.142.55-.36 1.07-.642 1.548l1.549 1.548-2.122 2.122-1.548-1.549c-.478.282-.997.5-1.548.642V17h-3v-2.189a5.964 5.964 0 01-1.548-.642l-1.548 1.549-2.122-2.122 1.549-1.548a5.964 5.964 0 01-.642-1.548H1v-3h2.189c.142-.55.36-1.07.642-1.548L2.282 4.404l2.122-2.122 1.548 1.549c.478-.282.997-.5 1.548-.642V1h3v2.189c.55.142 1.07.36 1.548.642l1.548-1.549 2.122 2.122-1.549 1.548zM9 11.5a2.5 2.5 0 100-5 2.5 2.5 0 000 5z"/></svg>