<svg xmlns="http://www.w3.org/2000/svg" width="18" height="18" viewBox="0 0 18 18">
  <path fill="#A2A2A2" d="M9,16 C5.13400675,16 2,12.8659932 2,9 C2,5.13400675 5.13400675,2 9,2 C12.8659932,2 16,5.13400675 16,9 C16,12.8659932 12.8659932,16 9,16 Z M8,5.44084378 L8,9.6775855 C8,10.2298703 8.44771525,10.6775855 9,10.6775855 C9.55228475,10.6775855 10,10.2298703 10,9.6775855 L10,5.44084378 C10,4.88855903 9.55228475,4.44084378 9,4.44084378 C8.44771525,4.44084378 8,4.88855903 8,5.44084378 Z M9,12 C8.44771525,12 8,12.4477153 8,13 C8,13.5522847 8.44771525,14 9,14 C9.55228475,14 10,13.5522847 10,13 C10,12.4477153 9.55228475,12 9,12 Z"/>
</svg>
