<svg xmlns="http://www.w3.org/2000/svg" width="24" height="24"><path fill="#757575" d="M15.5 11.5v-2h-2a.5.5 0 110-1h2v-2h-2a.5.5 0 110-1h1.855a3.502 3.502 0 00-6.855 1v5a3.5 3.5 0 006.855 1H13.5a.5.5 0 110-1h2zm.94.738A4.501 4.501 0 017.5 11.5v-5a4.5 4.5 0 018.94-.738.498.498 0 01.045.362c.01.124.015.25.015.376v5c0 .127-.005.252-.015.376a.501.501 0 01-.045.362zM11.5 21.04v-3.058c-3.348-.235-6-2.814-6-5.982a.5.5 0 111 0c0 2.751 2.453 5 5.5 5s5.5-2.249 5.5-5a.5.5 0 111 0c0 3.168-2.652 5.747-6 5.982v3.058H16a.5.5 0 010 1H8a.5.5 0 110-1h3.5z"/></svg>