<svg xmlns="http://www.w3.org/2000/svg" width="24" height="24" viewBox="0 0 24 24">
  <path fill="#757575" d="M5.20710678,11.5 L20,11.5 C20.2761424,11.5 20.5,11.7238576 20.5,12 C20.5,12.2761424 20.2761424,12.5 20,12.5 L5.20710678,12.5 L11.3535534,18.6464466 C11.5488155,18.8417088 11.5488155,19.1582912 11.3535534,19.3535534 C11.1582912,19.5488155 10.8417088,19.5488155 10.6464466,19.3535534 L3.64644661,12.3535534 C3.45118446,12.1582912 3.45118446,11.8417088 3.64644661,11.6464466 L10.6464466,4.64644661 C10.8417088,4.45118446 11.1582912,4.45118446 11.3535534,4.64644661 C11.5488155,4.84170876 11.5488155,5.15829124 11.3535534,5.35355339 L5.20710678,11.5 Z" transform="rotate(-90 12 12)"/>
</svg>
