<svg xmlns="http://www.w3.org/2000/svg" width="24" height="24" viewBox="0 0 24 24">
  <path fill="#757575" d="M17.9625012,18.741695 L5.2906052,6.00120161 C3.86612483,7.59332726 3,9.69551649 3,12 C3,16.9705627 7.02943725,21 12,21 C14.2870134,21 16.374788,20.1469574 17.9625012,18.741695 Z M18.6735867,18.0385833 C20.1193472,16.4417732 21,14.3237304 21,12 C21,7.02943725 16.9705627,3 12,3 C9.69374085,3 7.59008786,3.86746006 5.99752227,5.29389893 L18.6735867,18.0385833 Z M12,22 C6.4771525,22 2,17.5228475 2,12 C2,6.4771525 6.4771525,2 12,2 C17.5228475,2 22,6.4771525 22,12 C22,17.5228475 17.5228475,22 12,22 Z"/>
</svg>
