<svg xmlns="http://www.w3.org/2000/svg" width="24" height="24" viewBox="0 0 24 24">
  <path fill="#757575" d="M10.9545455,14.1764706 L6,14.1764706 C5.61372094,14.1764706 5.37333578,13.7571147 5.56854546,13.423791 L12.114,2.2473204 C12.3716886,1.80731298 13.0454545,1.99008832 13.0454545,2.5 L13.0454545,9.82352941 L18,9.82352941 C18.3862791,9.82352941 18.6266642,10.2428853 18.4314545,10.576209 L11.886,21.7526796 C11.6283114,22.192687 10.9545455,22.0099117 10.9545455,21.5 L10.9545455,14.1764706 Z M12.0454545,4.34315345 L6.87225829,13.1764706 L11.4545455,13.1764706 C11.7306878,13.1764706 11.9545455,13.4003282 11.9545455,13.6764706 L11.9545455,19.6568466 L17.1277417,10.8235294 L12.5454545,10.8235294 C12.2693122,10.8235294 12.0454545,10.5996718 12.0454545,10.3235294 L12.0454545,4.34315345 Z"/>
</svg>
