<svg xmlns="http://www.w3.org/2000/svg" width="24" height="24" viewBox="0 0 24 24">
  <path fill="#757575" d="M12,21 C16.9705627,21 21,16.9705627 21,12 C21,7.02943725 16.9705627,3 12,3 C7.02943725,3 3,7.02943725 3,12 C3,16.9705627 7.02943725,21 12,21 Z M12,22 C6.4771525,22 2,17.5228475 2,12 C2,6.4771525 6.4771525,2 12,2 C17.5228475,2 22,6.4771525 22,12 C22,17.5228475 17.5228475,22 12,22 Z M16.1203717,8.17460431 L10.4717591,14.7646523 L7.85355339,12.1464466 C7.65829124,11.9511845 7.34170876,11.9511845 7.14644661,12.1464466 C6.95118446,12.3417088 6.95118446,12.6582912 7.14644661,12.8535534 L10.1464466,15.8535534 C10.352395,16.0595018 10.690082,16.046533 10.8796283,15.8253957 L16.8796283,8.82539569 C17.0593394,8.61573277 17.0350586,8.30008277 16.8253957,8.1203717 C16.6157328,7.94066062 16.3000828,7.96494139 16.1203717,8.17460431 Z"/>
</svg>
