<svg xmlns="http://www.w3.org/2000/svg" width="24" height="24" viewBox="0 0 24 24">
  <path fill="#757575" d="M12,21 C16.9705627,21 21,16.9705627 21,12 C21,7.02943725 16.9705627,3 12,3 C7.02943725,3 3,7.02943725 3,12 C3,16.9705627 7.02943725,21 12,21 Z M12,22 C6.4771525,22 2,17.5228475 2,12 C2,6.4771525 6.4771525,2 12,2 C17.5228475,2 22,6.4771525 22,12 C22,17.5228475 17.5228475,22 12,22 Z M12,11.2928932 L9.87867966,9.17157288 C9.68341751,8.97631073 9.36683502,8.97631073 9.17157288,9.17157288 C8.97631073,9.36683502 8.97631073,9.68341751 9.17157288,9.87867966 L11.2928932,12 L9.17157288,14.1213203 C8.97631073,14.3165825 8.97631073,14.633165 9.17157288,14.8284271 C9.36683502,15.0236893 9.68341751,15.0236893 9.87867966,14.8284271 L12,12.7071068 L14.1213203,14.8284271 C14.3165825,15.0236893 14.633165,15.0236893 14.8284271,14.8284271 C15.0236893,14.633165 15.0236893,14.3165825 14.8284271,14.1213203 L12.7071068,12 L14.8284271,9.87867966 C15.0236893,9.68341751 15.0236893,9.36683502 14.8284271,9.17157288 C14.633165,8.97631073 14.3165825,8.97631073 14.1213203,9.17157288 L12,11.2928932 Z"/>
</svg>
