<svg xmlns="http://www.w3.org/2000/svg" width="24" height="24" viewBox="0 0 24 24">
  <path fill="#757575" d="M2,10.5 L22,10.5 L22,8.5 L2,8.5 L2,10.5 Z M2,11.5 L2,18 C2,18.5522847 2.44771525,19 3,19 L21,19 C21.5522847,19 22,18.5522847 22,18 L22,11.5 L2,11.5 Z M2,7.5 L22,7.5 L22,6 C22,5.44771525 21.5522847,5 21,5 L3,5 C2.44771525,5 2,5.44771525 2,6 L2,7.5 Z M3,4 L21,4 C22.1045695,4 23,4.8954305 23,6 L23,18 C23,19.1045695 22.1045695,20 21,20 L3,20 C1.8954305,20 1,19.1045695 1,18 L1,6 C1,4.8954305 1.8954305,4 3,4 Z M4,17.5 C3.72385763,17.5 3.5,17.2761424 3.5,17 C3.5,16.7238576 3.72385763,16.5 4,16.5 L9,16.5 C9.27614237,16.5 9.5,16.7238576 9.5,17 C9.5,17.2761424 9.27614237,17.5 9,17.5 L4,17.5 Z"/>
</svg>
