<svg xmlns="http://www.w3.org/2000/svg" width="24" height="24" viewBox="0 0 24 24">
  <path fill="#757575" d="M18,18.5 C18,20.4329966 16.4329966,22 14.5,22 L5.5,22 C3.56700338,22 2,20.4329966 2,18.5 L2,9.5 C2,7.56700338 3.56700338,6 5.5,6 L6.5,6 C6.5,4.06700338 8.06700338,2.5 10,2.5 L19,2.5 C20.9329966,2.5 22.5,4.06700338 22.5,6 L22.5,15 C22.5,16.9329966 20.9329966,18.5 19,18.5 L18,18.5 Z M17,18.5 L10,18.5 C8.06700338,18.5 6.5,16.9329966 6.5,15 L6.5,7 L5.5,7 C4.11928813,7 3,8.11928813 3,9.5 L3,18.5 C3,19.8807119 4.11928813,21 5.5,21 L14.5,21 C15.8807119,21 17,19.8807119 17,18.5 Z M10,3.5 C8.61928813,3.5 7.5,4.61928813 7.5,6 L7.5,15 C7.5,16.3807119 8.61928813,17.5 10,17.5 L19,17.5 C20.3807119,17.5 21.5,16.3807119 21.5,15 L21.5,6 C21.5,4.61928813 20.3807119,3.5 19,3.5 L10,3.5 Z"/>
</svg>
