<svg xmlns="http://www.w3.org/2000/svg" width="24" height="24" viewBox="0 0 24 24">
  <path fill="#757575" d="M9,18.5 L14,18.5 C14.371691,18.5 14.6134389,18.8911563 14.4472136,19.2236068 L11.9472136,24.2236068 C11.7629515,24.5921311 11.2370485,24.5921311 11.0527864,24.2236068 L8.5527864,19.2236068 C8.38656113,18.8911563 8.62830899,18.5 9,18.5 Z M9.80901699,19.5 L11.5,22.881966 L13.190983,19.5 L9.80901699,19.5 Z M9.5,4.5 L9.5,18.5 L13.5,18.5 L13.5,4.5 L9.5,4.5 Z M14.5,4 L14.5,19 C14.5,19.2761424 14.2761424,19.5 14,19.5 L9,19.5 C8.72385763,19.5 8.5,19.2761424 8.5,19 L8.5,4 L8.5,2 C8.5,0.619288125 9.61928813,-0.5 11,-0.5 L12,-0.5 C13.3807119,-0.5 14.5,0.619288125 14.5,2 L14.5,4 Z M13.5,3.5 L13.5,2 C13.5,1.17157288 12.8284271,0.5 12,0.5 L11,0.5 C10.1715729,0.5 9.5,1.17157288 9.5,2 L9.5,3.5 L13.5,3.5 Z" transform="rotate(45 11.5 12)"/>
</svg>
