<svg xmlns="http://www.w3.org/2000/svg" width="24" height="24"><path fill="#757575" d="M5.136 14.828l3.536 3.536a.5.5 0 01-.196.828L3.173 20.96a.5.5 0 01-.633-.633l1.768-5.303a.5.5 0 01.828-.196zm-.135 1.28l-1.196 3.587 3.587-1.196-2.391-2.391zM15.389 5.282l-9.9 9.9 2.829 2.828 9.9-9.9-2.829-2.828zm3.89 3.182L8.671 19.071a.5.5 0 01-.708 0L4.43 15.536a.5.5 0 010-.708L15.036 4.222l1.414-1.414a2.5 2.5 0 013.535 0l.707.707a2.5 2.5 0 010 3.535l-1.414 1.414zm-.354-1.06l1.06-1.06a1.5 1.5 0 000-2.122l-.707-.707a1.5 1.5 0 00-2.121 0l-1.06 1.06 2.828 2.829z"/></svg>