<svg xmlns="http://www.w3.org/2000/svg" width="24" height="24" viewBox="0 0 24 24">
  <path fill="#757575" d="M15.7989923,7.24906519 C16.5477281,8.12320423 17,9.25878523 17,10.5 C17,13.2614237 14.7614237,15.5 12,15.5 C9.23857625,15.5 7,13.2614237 7,10.5 C7,9.25878523 7.45227195,8.12320423 8.20100766,7.24906519 C6.11736939,8.09880818 4.14262834,9.67556758 2.2688623,12 C5.24691067,15.6943098 8.48002155,17.5 12,17.5 C15.5199784,17.5 18.7530893,15.6943098 21.7311377,12 C19.8573717,9.67556758 17.8826306,8.09880818 15.7989923,7.24906519 Z M12,18.5 C7.94991183,18.5 4.28324517,16.3333333 1,12 C4.28324517,7.66666667 7.94991183,5.5 12,5.5 C16.0500882,5.5 19.7167548,7.66666667 23,12 C19.7167548,16.3333333 16.0500882,18.5 12,18.5 Z M12,14.5 C14.209139,14.5 16,12.709139 16,10.5 C16,8.290861 14.209139,6.5 12,6.5 C9.790861,6.5 8,8.290861 8,10.5 C8,12.709139 9.790861,14.5 12,14.5 Z"/>
</svg>
