<svg xmlns="http://www.w3.org/2000/svg" width="24" height="24" viewBox="0 0 24 24">
  <path fill="#757575" d="M4,7.5 C3.72385763,7.5 3.5,7.27614237 3.5,7 C3.5,6.72385763 3.72385763,6.5 4,6.5 L20,6.5 C20.2761424,6.5 20.5,6.72385763 20.5,7 C20.5,7.27614237 20.2761424,7.5 20,7.5 L4,7.5 Z M4,12.5 C3.72385763,12.5 3.5,12.2761424 3.5,12 C3.5,11.7238576 3.72385763,11.5 4,11.5 L16,11.5 C16.2761424,11.5 16.5,11.7238576 16.5,12 C16.5,12.2761424 16.2761424,12.5 16,12.5 L4,12.5 Z M4,17.5 C3.72385763,17.5 3.5,17.2761424 3.5,17 C3.5,16.7238576 3.72385763,16.5 4,16.5 L10,16.5 C10.2761424,16.5 10.5,16.7238576 10.5,17 C10.5,17.2761424 10.2761424,17.5 10,17.5 L4,17.5 Z"/>
</svg>
