<svg xmlns="http://www.w3.org/2000/svg" width="24" height="24" viewBox="0 0 24 24">
  <path fill="#757575" d="M6.5,10 C8.43299662,10 10,8.43299662 10,6.5 C10,4.56700338 8.43299662,3 6.5,3 C4.56700338,3 3,4.56700338 3,6.5 C3,8.43299662 4.56700338,10 6.5,10 Z M6.5,11 C4.01471863,11 2,8.98528137 2,6.5 C2,4.01471863 4.01471863,2 6.5,2 C8.98528137,2 11,4.01471863 11,6.5 C11,8.98528137 8.98528137,11 6.5,11 Z M6.5,21 C8.43299662,21 10,19.4329966 10,17.5 C10,15.5670034 8.43299662,14 6.5,14 C4.56700338,14 3,15.5670034 3,17.5 C3,19.4329966 4.56700338,21 6.5,21 Z M6.5,22 C4.01471863,22 2,19.9852814 2,17.5 C2,15.0147186 4.01471863,13 6.5,13 C8.98528137,13 11,15.0147186 11,17.5 C11,19.9852814 8.98528137,22 6.5,22 Z M17.5,10 C19.4329966,10 21,8.43299662 21,6.5 C21,4.56700338 19.4329966,3 17.5,3 C15.5670034,3 14,4.56700338 14,6.5 C14,8.43299662 15.5670034,10 17.5,10 Z M17.5,11 C15.0147186,11 13,8.98528137 13,6.5 C13,4.01471863 15.0147186,2 17.5,2 C19.9852814,2 22,4.01471863 22,6.5 C22,8.98528137 19.9852814,11 17.5,11 Z M17.5,21 C19.4329966,21 21,19.4329966 21,17.5 C21,15.5670034 19.4329966,14 17.5,14 C15.5670034,14 14,15.5670034 14,17.5 C14,19.4329966 15.5670034,21 17.5,21 Z M17.5,22 C15.0147186,22 13,19.9852814 13,17.5 C13,15.0147186 15.0147186,13 17.5,13 C19.9852814,13 22,15.0147186 22,17.5 C22,19.9852814 19.9852814,22 17.5,22 Z"/>
</svg>
