<svg xmlns="http://www.w3.org/2000/svg" width="24" height="24" viewBox="0 0 24 24">
  <path fill="#757575" d="M12.0000725,19.0634978 L18.9984636,13.0648768 C20.8015615,11.5193643 21.0103757,8.8047793 19.4648633,7.00168142 C17.9193508,5.19858354 15.2047658,4.9897693 13.4016679,6.53528177 L12.0000725,7.73664922 L10.5984772,6.53528177 C8.79537928,4.9897693 6.08079424,5.19858354 4.53528177,7.00168142 C2.9897693,8.8047793 3.19858354,11.5193643 5.00168142,13.0648768 L12.0000725,19.0634978 Z M12.7508765,5.77602517 C14.9733002,3.87109055 18.3191853,4.12846632 20.2241199,6.35089004 C22.1290545,8.57331377 21.8716787,11.9191988 19.649255,13.8241334 L12.0000725,20.3805755 L4.35089004,13.8241334 C2.12846632,11.9191988 1.87109055,8.57331377 3.77602517,6.35089004 C5.68095979,4.12846632 9.02684481,3.87109055 11.2492685,5.77602517 L12.0000725,6.41957144 L12.7508765,5.77602517 Z"/>
</svg>
