<svg xmlns="http://www.w3.org/2000/svg" width="24" height="24" viewBox="0 0 24 24">
  <path fill="#757575" d="M2.35394792,4.64587193 L12,13.3273188 L21.6460521,4.64587193 C21.4504006,4.55235902 21.2313148,4.5 21,4.5 L3,4.5 C2.76868515,4.5 2.54959941,4.55235902 2.35394792,4.64587193 Z M1.64617977,5.35330423 C1.55247394,5.54911884 1.5,5.76843144 1.5,6 L1.5,18 C1.5,18.8284271 2.17157288,19.5 3,19.5 L21,19.5 C21.8284271,19.5 22.5,18.8284271 22.5,18 L22.5,6 C22.5,5.76843144 22.4475261,5.54911884 22.3538202,5.35330423 C22.3475722,5.35955071 22.3411261,5.36566774 22.3344824,5.37164707 L12.3344824,14.3716471 C12.1443299,14.5427843 11.8556701,14.5427843 11.6655176,14.3716471 L1.66551763,5.37164707 C1.65887393,5.36566774 1.65242783,5.35955071 1.64617977,5.35330423 Z M3,3.5 L21,3.5 C22.3807119,3.5 23.5,4.61928813 23.5,6 L23.5,18 C23.5,19.3807119 22.3807119,20.5 21,20.5 L3,20.5 C1.61928813,20.5 0.5,19.3807119 0.5,18 L0.5,6 C0.5,4.61928813 1.61928813,3.5 3,3.5 Z"/>
</svg>
