<svg xmlns="http://www.w3.org/2000/svg" width="24" height="24"><path fill="#757575" d="M13.999 18c-.002-1.07.185-1.909.578-2.515.23-.356.465-.647.852-1.08l.181-.2c1.046-1.166 1.39-1.878 1.39-3.447C17 8.135 14.772 6 12.013 6h-.026C9.228 6 7 8.135 7 10.758c0 1.57.344 2.281 1.39 3.446l.181.203c.387.432.622.722.852 1.078.393.607.58 1.445.578 2.515H14zm-5.415-1.972c-.196-.302-.403-.558-.758-.954l-.18-.202C6.45 13.54 6 12.61 6 10.758 6 7.573 8.685 5 11.987 5h.026C15.315 5 18 7.573 18 10.758c0 1.852-.45 2.781-1.645 4.114l-.18.2c-.356.397-.563.654-.759.956-.291.45-.437 1.168-.415 2.154a.8.8 0 01-.782.818H9.8a.8.8 0 01-.8-.8v-.018c.022-.986-.124-1.704-.415-2.154zM10 21a.5.5 0 110-1h4a.5.5 0 110 1h-4zm.5 2a.5.5 0 110-1h3a.5.5 0 110 1h-3zm1-22a.5.5 0 111 0v2a.5.5 0 11-1 0V1zm6.176 1.5a.5.5 0 11.809.588l-1.176 1.618a.5.5 0 11-.809-.588L17.676 2.5zM7.485 4.118a.5.5 0 01-.81.588L5.5 3.088a.5.5 0 11.809-.588l1.176 1.618zm13.727 3.685a.5.5 0 01.342.94l-1.88.684a.5.5 0 11-.341-.94l1.88-.684zm-16.658.684a.5.5 0 01-.342.94l-1.88-.684a.5.5 0 01.343-.94l1.88.684z"/></svg>