<svg xmlns="http://www.w3.org/2000/svg" width="24" height="24"><path fill="#757575" d="M14.681 18c-.02-1.445.21-2.562.71-3.355.288-.457.583-.831 1.07-1.391l.231-.264c1.354-1.55 1.808-2.515 1.808-4.615C18.5 4.856 15.599 2 12.016 2h-.032C8.4 2 5.5 4.856 5.5 8.375c0 2.1.454 3.066 1.808 4.615l.231.265c.487.56.782.934 1.07 1.39.5.793.729 1.91.71 3.355h5.362zm-6.918-2.821c-.254-.404-.522-.744-.978-1.267l-.23-.264C5.055 11.932 4.5 10.751 4.5 8.375 4.5 4.3 7.852 1 11.984 1h.032C16.148 1 19.5 4.3 19.5 8.375c0 2.375-.556 3.556-2.055 5.273l-.23.262c-.456.525-.724.865-.978 1.269-.4.634-.591 1.634-.552 2.998a.8.8 0 01-.776.823H9.114a.8.8 0 01-.8-.8v-.023c.04-1.364-.152-2.364-.551-2.998zM9.5 20h5a.5.5 0 110 1h-5a.5.5 0 110-1zm.5 2h4a.5.5 0 110 1h-4a.5.5 0 110-1zm.416-18.244a.5.5 0 11.317.949A4.002 4.002 0 008 8.5a.5.5 0 01-1 0 5.002 5.002 0 013.416-4.744z"/></svg>