<svg xmlns="http://www.w3.org/2000/svg" width="24" height="24" viewBox="0 0 24 24">
  <path fill="#757575" d="M8.08613106,17.8064148 C7.65698662,18.0572135 7.1057838,17.9126357 6.8549851,17.4834913 C6.70592954,17.2284407 6.69152949,16.9164807 6.81645502,16.6487832 L13.4122297,2.51498031 C13.6224276,2.06455629 14.1579674,1.86981453 14.6083914,2.0800124 C14.7999676,2.16941461 14.9539571,2.32340416 15.0433593,2.51498031 L21.639134,16.6487832 C21.8493319,17.0992072 21.6545901,17.634747 21.2041661,17.8449449 C20.9364685,17.9698704 20.6245086,17.9554704 20.369458,17.8064148 L14.2277945,14.217131 L8.08613106,17.8064148 Z M14.2277945,13.0588816 L20.5975128,16.7814443 L14.2277945,3.13204788 L7.85807618,16.7814443 L14.2277945,13.0588816 Z" transform="rotate(45 14.228 9.962)"/>
</svg>
