<svg xmlns="http://www.w3.org/2000/svg" width="24" height="24"><path fill="#757575" d="M14.668 15.779c0 1.372.945 2.585 2.283 2.998.67.206 1.362.304 2.064.333.501.02 1.002-.012 1.465-.228.364-.17.535-.45.519-.824-.017-.376-.197-.657-.582-.807a2.043 2.043 0 00-.412-.117c-.425-.07-.852-.13-1.275-.209-.698-.13-.99-.474-1-1.133-.008-.583.162-1.133.354-1.677.35-.996.825-1.944 1.279-2.901.438-.924.897-1.84 1.207-2.813.17-.534.252-1.07.097-1.623-.236-.839-.774-1.4-1.703-1.562-.85-.148-1.695-.165-2.464.308-.255.157-.5.12-.723-.063-.17-.14-.33-.286-.496-.43-.784-.675-1.82-.708-2.662-.091-.34.25-.625.558-.994.774-.33.194-.662.249-1.027.067a19.043 19.043 0 00-1.067-.478c-.364-.153-.716-.343-1.125-.375-1.295-.103-2.65.616-3.221 1.708-.254.483-.46.985-.657 1.49-.906 2.337-1.644 4.724-2.408 7.102-.342 1.064.062 2.112 1.027 2.687a3.014 3.014 0 002.431.319c.692-.194 1.07-.714 1.335-1.298.88-1.937 1.672-3.907 2.51-5.86.231-.537.455-1.077.7-1.608.247-.537.957-.72 1.378-.364.257.217.325.507.3.816-.028.33-.165.635-.294.939-.545 1.288-1.1 2.572-1.649 3.859-.11.26-.23.518-.28.798-.083.48.12.904.54 1.074.429.172.874.201 1.318.05.517-.174.826-.553 1.064-.99.818-1.5 1.63-3.003 2.447-4.503.378-.693.762-1.383 1.148-2.071.143-.256.311-.498.579-.656a.739.739 0 01.75-.024c.241.127.258.358.248.585a1 1 0 01-.093.357c-.106.237-.205.477-.323.71-.68 1.335-1.37 2.666-2.043 4.004-.285.565-.58 1.133-.545 1.727z"/></svg>