<svg xmlns="http://www.w3.org/2000/svg" width="24" height="24" viewBox="0 0 24 24">
  <path fill="#757575" d="M9.66582821,19.0857806 C10.4102391,19.2670083 11.1927068,19.3636364 12,19.3636364 C16.9705627,19.3636364 21,15.7005116 21,11.1818182 C21,6.66312477 16.9705627,3 12,3 C7.02943725,3 3,6.66312477 3,11.1818182 C3,13.5514727 4.10812486,15.6858395 5.87898753,17.1800213 L5.45454545,21 L9.66582821,19.0857806 Z M5.8683484,21.9103665 C5.16199954,22.2314341 4.37497844,21.660718 4.46066172,20.8895685 L4.82816932,17.582 C3.03410708,15.8882823 2,13.613213 2,11.1818182 C2,6.08844977 6.49729475,2 12,2 C17.5027052,2 22,6.08844977 22,11.1818182 C22,16.2751866 17.5027052,20.3636364 12,20.3636364 C11.2440642,20.3636364 10.4985774,20.2865277 9.77365094,20.135229 L5.8683484,21.9103665 Z"/>
</svg>
