<svg xmlns="http://www.w3.org/2000/svg" width="24" height="24" viewBox="0 0 24 24">
  <path fill="#757575" d="M12,2 C13.3561105,2 14.4600303,3.07975681 14.4989388,4.42644981 C17.4613745,5.47172536 19.5,8.28670282 19.5,11.5 L19.5,15.5 C19.5,15.8905243 19.6094757,16 20,16 C20.8284271,16 21.5,16.6715729 21.5,17.5 L21.5,18.5 C21.5,19.3284271 20.8284271,20 20,20 L4,20 C3.17157288,20 2.5,19.3284271 2.5,18.5 L2.5,17.5 C2.5,16.6715729 3.17157288,16 4,16 C4.39052429,16 4.5,15.8905243 4.5,15.5 L4.5,11.5 C4.5,8.28670282 6.53862552,5.47172536 9.50106119,4.42644981 C9.53996966,3.07975681 10.6438895,2 12,2 Z M9.5,21 L14.5,21 C14.7761424,21 15,21.2238576 15,21.5 C15,21.7761424 14.7761424,22 14.5,22 L9.5,22 C9.22385763,22 9,21.7761424 9,21.5 C9,21.2238576 9.22385763,21 9.5,21 Z"/>
</svg>
