<svg xmlns="http://www.w3.org/2000/svg" width="24" height="24"><path fill="#757575" d="M16.492 6.8a6.48 6.48 0 00-2.635-1.53l-.357-.107V4.5a1.5 1.5 0 00-3 0v.663l-.357.106A6.503 6.503 0 005.5 11.5v4c0 .943-.557 1.5-1.5 1.5a.5.5 0 00-.5.5v1a.5.5 0 00.5.5h.293l12.2-12.2zM3.412 19.88A1.5 1.5 0 012.5 18.5v-1A1.5 1.5 0 014 16c.39 0 .5-.11.5-.5v-4a7.503 7.503 0 015.001-7.074 2.5 2.5 0 014.998 0 7.48 7.48 0 012.7 1.668l1.947-1.948a.5.5 0 01.708.708l-17 17a.5.5 0 01-.708-.708l1.266-1.265zM18.558 7.86a7.482 7.482 0 01.942 3.64v4c0 .39.11.5.5.5a1.5 1.5 0 011.5 1.5v1A1.5 1.5 0 0120 20H6.463l.997-1H20a.5.5 0 00.5-.5v-1a.5.5 0 00-.5-.5c-.943 0-1.5-.557-1.5-1.5v-4c0-1.034-.244-2.02-.681-2.899l.739-.742zM9.5 21h5a.5.5 0 110 1h-5a.5.5 0 110-1z"/></svg>