<svg xmlns="http://www.w3.org/2000/svg" width="24" height="24" viewBox="0 0 24 24">
  <path fill="#757575" d="M4.5,14 C3.3954305,14 2.5,13.1045695 2.5,12 C2.5,10.8954305 3.3954305,10 4.5,10 C5.6045695,10 6.5,10.8954305 6.5,12 C6.5,13.1045695 5.6045695,14 4.5,14 Z M19.5,14 C18.3954305,14 17.5,13.1045695 17.5,12 C17.5,10.8954305 18.3954305,10 19.5,10 C20.6045695,10 21.5,10.8954305 21.5,12 C21.5,13.1045695 20.6045695,14 19.5,14 Z M12,14 C10.8954305,14 10,13.1045695 10,12 C10,10.8954305 10.8954305,10 12,10 C13.1045695,10 14,10.8954305 14,12 C14,13.1045695 13.1045695,14 12,14 Z"/>
</svg>
