<svg xmlns="http://www.w3.org/2000/svg" width="24" height="24" viewBox="0 0 24 24">
  <path fill="#757575" d="M4.5,13.5 C5.32842712,13.5 6,12.8284271 6,12 C6,11.1715729 5.32842712,10.5 4.5,10.5 C3.67157288,10.5 3,11.1715729 3,12 C3,12.8284271 3.67157288,13.5 4.5,13.5 Z M4.5,14.5 C3.11928813,14.5 2,13.3807119 2,12 C2,10.6192881 3.11928813,9.5 4.5,9.5 C5.88071187,9.5 7,10.6192881 7,12 C7,13.3807119 5.88071187,14.5 4.5,14.5 Z M19.5,13.5 C20.3284271,13.5 21,12.8284271 21,12 C21,11.1715729 20.3284271,10.5 19.5,10.5 C18.6715729,10.5 18,11.1715729 18,12 C18,12.8284271 18.6715729,13.5 19.5,13.5 Z M19.5,14.5 C18.1192881,14.5 17,13.3807119 17,12 C17,10.6192881 18.1192881,9.5 19.5,9.5 C20.8807119,9.5 22,10.6192881 22,12 C22,13.3807119 20.8807119,14.5 19.5,14.5 Z M12,13.5 C12.8284271,13.5 13.5,12.8284271 13.5,12 C13.5,11.1715729 12.8284271,10.5 12,10.5 C11.1715729,10.5 10.5,11.1715729 10.5,12 C10.5,12.8284271 11.1715729,13.5 12,13.5 Z M12,14.5 C10.6192881,14.5 9.5,13.3807119 9.5,12 C9.5,10.6192881 10.6192881,9.5 12,9.5 C13.3807119,9.5 14.5,10.6192881 14.5,12 C14.5,13.3807119 13.3807119,14.5 12,14.5 Z"/>
</svg>
