<svg xmlns="http://www.w3.org/2000/svg" width="24" height="24" viewBox="0 0 24 24">
  <path fill="#757575" d="M6.95724995,17.0352359 C4.98574998,14.1103865 4,11.4319745 4,9 C4,4.581722 7.581722,1 12,1 C14.8837576,1 17.4111408,2.52581995 18.8188664,4.81417659 L20.1412097,3.45176231 C20.333536,3.25360788 20.6500833,3.24888329 20.8482377,3.44120965 C21.0463921,3.63353602 21.0511167,3.95008325 20.8587903,4.14823769 L14.3916566,10.8113452 C14.2437693,11.0063076 14.0725931,11.1826291 13.88227,11.3361677 L4.35879035,21.1482377 C4.16646398,21.3463921 3.84991675,21.3511167 3.65176231,21.1587903 C3.45360788,20.966464 3.44888329,20.6499167 3.64120965,20.4517623 L6.95724995,17.0352359 Z M18.0967854,5.55813877 C16.8949443,3.43381398 14.6149147,2 12,2 C8.13400675,2 5,5.13400675 5,9 C5,11.1692532 5.88452221,13.6071307 7.66942392,16.301481 L11.8480604,11.9962191 C10.2618046,11.9170918 9,10.605901 9,9 C9,7.34314575 10.3431458,6 12,6 C13.5756011,6 14.8675082,7.21463867 14.9904307,8.75862548 L18.0967854,5.55813877 Z M8.28376177,18.8520401 L8.98679425,18.1277036 C9.8497665,19.2368654 10.8538424,20.3856447 12,21.573292 C16.6889894,16.7145661 19,12.5063627 19,9 C19,8.6256283 18.9706111,8.25812075 18.9140144,7.89965859 L19.7561352,7.03201906 C19.9153894,7.66160611 20,8.32092212 20,9 C20,13 17.3333333,17.6666667 12,23 C10.5693776,21.5693776 9.33063157,20.1867244 8.28376177,18.8520401 Z M12,11 C13.1045695,11 14,10.1045695 14,9 C14,7.8954305 13.1045695,7 12,7 C10.8954305,7 10,7.8954305 10,9 C10,10.1045695 10.8954305,11 12,11 Z"/>
</svg>
