<svg xmlns="http://www.w3.org/2000/svg" width="24" height="24" viewBox="0 0 24 24">
  <path fill="#757575" d="M19,9 C19,5.13400675 15.8659932,2 12,2 C8.13400675,2 5,5.13400675 5,9 C5,12.5063627 7.31101059,16.7145661 12,21.573292 C16.6889894,16.7145661 19,12.5063627 19,9 Z M12,23 C6.66666667,17.6666667 4,13 4,9 C4,4.581722 7.581722,1 12,1 C16.418278,1 20,4.581722 20,9 C20,13 17.3333333,17.6666667 12,23 Z M12,11 C13.1045695,11 14,10.1045695 14,9 C14,7.8954305 13.1045695,7 12,7 C10.8954305,7 10,7.8954305 10,9 C10,10.1045695 10.8954305,11 12,11 Z M12,12 C10.3431458,12 9,10.6568542 9,9 C9,7.34314575 10.3431458,6 12,6 C13.6568542,6 15,7.34314575 15,9 C15,10.6568542 13.6568542,12 12,12 Z"/>
</svg>
