<svg xmlns="http://www.w3.org/2000/svg" width="24" height="24" viewBox="0 0 24 24">
  <path fill="#757575" d="M12,14.5 C8.96243388,14.5 6.5,12.0375661 6.5,9 C6.5,5.96243388 8.96243388,3.5 12,3.5 C15.0375661,3.5 17.5,5.96243388 17.5,9 C17.5,12.0375661 15.0375661,14.5 12,14.5 Z M12,13.5 C14.4852814,13.5 16.5,11.4852814 16.5,9 C16.5,6.51471863 14.4852814,4.5 12,4.5 C9.51471863,4.5 7.5,6.51471863 7.5,9 C7.5,11.4852814 9.51471863,13.5 12,13.5 Z M20.4107704,19.7133867 C20.5762569,19.9344496 20.5312034,20.2478099 20.3101405,20.4132965 C20.0890777,20.578783 19.7757174,20.5337295 19.6102308,20.3126667 C17.8267483,17.930227 15.0327649,16.5 12,16.5 C8.97450767,16.5 6.18646747,17.9233247 4.40214955,20.2961657 C4.23618525,20.5168702 3.92272828,20.5612459 3.70202381,20.3952816 C3.48131935,20.2293173 3.43694368,19.9158603 3.60290799,19.6951558 C5.57416378,17.073719 8.65679974,15.5 12,15.5 C15.3512417,15.5 18.4404365,17.0813444 20.4107704,19.7133867 Z"/>
</svg>
