<svg xmlns="http://www.w3.org/2000/svg" width="24" height="24" viewBox="0 0 24 24">
  <path fill="#757575" d="M14.2403124,18 L16.3904344,20.6876525 C16.5629392,20.9032834 16.5279785,21.2179296 16.3123475,21.3904344 C16.0967166,21.5629392 15.7820704,21.5279785 15.6095656,21.3123475 L12.9596876,18 L11.0403124,18 L8.3904344,21.3123475 C8.21792963,21.5279785 7.90328344,21.5629392 7.68765248,21.3904344 C7.47202151,21.2179296 7.43706082,20.9032834 7.6095656,20.6876525 L9.75968758,18 L4,18 C3.44771525,18 3,17.5522847 3,17 L3,6 C3,5.44771525 3.44771525,5 4,5 L20,5 C20.5522847,5 21,5.44771525 21,6 L21,17 C21,17.5522847 20.5522847,18 20,18 L14.2403124,18 Z M4,6 L4,17 L20,17 L20,6 L4,6 Z M10,4 C9.72385763,4 9.5,3.77614237 9.5,3.5 C9.5,3.22385763 9.72385763,3 10,3 L14,3 C14.2761424,3 14.5,3.22385763 14.5,3.5 C14.5,3.77614237 14.2761424,4 14,4 L10,4 Z"/>
</svg>
