<svg xmlns="http://www.w3.org/2000/svg" width="24" height="24" viewBox="0 0 24 24">
  <path fill="#757575" d="M12,21 C16.9705627,21 21,16.9705627 21,12 C21,7.02943725 16.9705627,3 12,3 C7.02943725,3 3,7.02943725 3,12 C3,16.9705627 7.02943725,21 12,21 Z M12,22 C6.4771525,22 2,17.5228475 2,12 C2,6.4771525 6.4771525,2 12,2 C17.5228475,2 22,6.4771525 22,12 C22,17.5228475 17.5228475,22 12,22 Z M10.952,14.768 L12.136,14.768 L12.136,14.08 C12.136,13.104 12.824,12.432 13.544,11.744 C14.312,11.008 15.112,10.256 15.112,9.072 C15.112,7.728 14.248,6.416 12.072,6.416 C10.12,6.416 8.792,7.728 8.68,9.6 L9.928,9.6 C10.04,8.336 10.856,7.52 12.056,7.52 C13.24,7.52 13.768,8.176 13.768,9.12 C13.768,9.888 13.224,10.464 12.6,11.088 C11.8,11.872 10.952,12.672 10.952,13.968 L10.952,14.768 Z M11.512,18.08 C12.072,18.08 12.536,17.632 12.536,17.056 C12.536,16.48 12.072,16.032 11.512,16.032 C10.952,16.032 10.488,16.48 10.488,17.056 C10.488,17.632 10.952,18.08 11.512,18.08 Z"/>
</svg>
