<svg xmlns="http://www.w3.org/2000/svg" width="24" height="24" viewBox="0 0 24 24">
  <path fill="#757575" d="M15.9994165,15.2923098 L21.8535534,21.1464466 C22.0488155,21.3417088 22.0488155,21.6582912 21.8535534,21.8535534 C21.6582912,22.0488155 21.3417088,22.0488155 21.1464466,21.8535534 L15.2923098,15.9994165 C13.8819612,17.2444908 12.0292099,18 10,18 C5.581722,18 2,14.418278 2,10 C2,5.581722 5.581722,2 10,2 C14.418278,2 18,5.581722 18,10 C18,12.0292099 17.2444908,13.8819612 15.9994165,15.2923098 Z M10,17 C13.8659932,17 17,13.8659932 17,10 C17,6.13400675 13.8659932,3 10,3 C6.13400675,3 3,6.13400675 3,10 C3,13.8659932 6.13400675,17 10,17 Z"/>
</svg>
