<svg xmlns="http://www.w3.org/2000/svg" width="24" height="24" viewBox="0 0 24 24">
  <path fill="#757575" d="M20.6722587,5.20148327 L10.2458346,14.8139003 L18.1307223,18.7563442 L20.6722587,5.20148327 Z M19.5748157,4.85311783 L3.69594783,11.5389569 L9.28929597,14.335631 L19.5748157,4.85311783 Z M13.2653932,17.4417136 L9.85355339,20.8535534 C9.53857096,21.1685358 9,20.9454524 9,20.5 L9,15.309017 L2.2763932,11.9472136 C1.89431483,11.7561744 1.91227042,11.2049512 2.3059715,11.0391823 L21.3059715,3.03918231 C21.6731625,2.88457557 22.0648589,3.20055576 21.9914361,3.59214427 L18.9914361,19.5921443 C18.9302174,19.918644 18.5735125,20.0957732 18.2763932,19.9472136 L13.2653932,17.4417136 Z M12.3225841,16.9703091 L10,15.809017 L10,19.2928932 L12.3225841,16.9703091 Z"/>
</svg>
