<svg xmlns="http://www.w3.org/2000/svg" width="24" height="24"><path fill="#757575" d="M11.5 10.5v-3a.5.5 0 111 0v3h3a.5.5 0 110 1h-3v3a.5.5 0 11-1 0v-3h-3a.5.5 0 110-1h3zm-1.834 8.586a9.862 9.862 0 002.334.278c4.97 0 9-3.663 9-8.182S16.97 3 12 3s-9 3.663-9 8.182c0 2.37 1.108 4.504 2.879 5.998L5.455 21l4.21-1.914zM5.868 21.91a1 1 0 01-1.407-1.02l.367-3.308C3.034 15.888 2 13.613 2 11.182 2 6.088 6.497 2 12 2s10 4.088 10 9.182c0 5.093-4.497 9.182-10 9.182-.756 0-1.501-.077-2.226-.229L5.868 21.91z"/></svg>