<svg xmlns="http://www.w3.org/2000/svg" width="24" height="24"><path fill="#757575" d="M14 20H1v-6c.895-.32 1.342-.986 1.342-2S1.895 10.32 1 10V4h22v6c-.895.32-1.342.986-1.342 2s.447 1.68 1.342 2v6h-9zM13 5H2v4.377c.876.55 1.342 1.46 1.342 2.623 0 1.162-.466 2.073-1.342 2.623V19h20v-4.377c-.876-.55-1.342-1.46-1.342-2.623 0-1.162.466-2.073 1.342-2.623V5h-9zm4.5 2.5a.5.5 0 111 0v1a.5.5 0 11-1 0v-1zm0 4a.5.5 0 111 0v1a.5.5 0 11-1 0v-1zm0 4a.5.5 0 111 0v1a.5.5 0 11-1 0v-1zM6 9.5a.5.5 0 010-1h9a.5.5 0 110 1H6zm0 3a.5.5 0 110-1h9a.5.5 0 110 1H6z"/></svg>