<svg xmlns="http://www.w3.org/2000/svg" width="24" height="24" viewBox="0 0 24 24">
  <path fill="#757575" d="M12,21 C16.9705627,21 21,16.9705627 21,12 C21,7.02943725 16.9705627,3 12,3 C7.02943725,3 3,7.02943725 3,12 C3,16.9705627 7.02943725,21 12,21 Z M12,22 C6.4771525,22 2,17.5228475 2,12 C2,6.4771525 6.4771525,2 12,2 C17.5228475,2 22,6.4771525 22,12 C22,17.5228475 17.5228475,22 12,22 Z M12,18.08 C12.56,18.08 13.024,17.632 13.024,17.056 C13.024,16.48 12.56,16.032 12,16.032 C11.44,16.032 10.976,16.48 10.976,17.056 C10.976,17.632 11.44,18.08 12,18.08 Z M11.504,14.768 L12.528,14.768 L12.752,6.56 L11.28,6.56 L11.504,14.768 Z"/>
</svg>
